<svg width="302" height="161" viewBox="0 0 302 161" fill="none" xmlns="http://www.w3.org/2000/svg">
<path d="M104.223 122.24C107.943 122.24 110.835 123.272 112.899 125.336C114.987 127.376 116.031 130.304 116.031 134.12C116.031 137.936 114.987 140.876 112.899 142.94C110.835 144.98 107.943 146 104.223 146H95.8346V122.24H104.223ZM104.223 142.724C106.743 142.724 108.663 141.98 109.983 140.492C111.327 138.98 111.999 136.856 111.999 134.12C111.999 131.384 111.327 129.272 109.983 127.784C108.663 126.272 106.743 125.516 104.223 125.516H99.6866V142.724H104.223ZM129.125 146.36C127.325 146.36 125.741 145.988 124.373 145.244C123.029 144.5 121.973 143.432 121.205 142.04C120.437 140.624 120.053 138.944 120.053 137C120.053 135.056 120.425 133.388 121.169 131.996C121.937 130.58 122.981 129.5 124.301 128.756C125.645 128.012 127.181 127.64 128.909 127.64C130.661 127.64 132.149 128 133.373 128.72C134.597 129.44 135.533 130.424 136.181 131.672C136.829 132.92 137.153 134.336 137.153 135.92C137.153 136.376 137.141 136.796 137.117 137.18C137.093 137.564 137.057 137.888 137.009 138.152H123.833C124.001 139.832 124.541 141.116 125.453 142.004C126.389 142.868 127.589 143.3 129.053 143.3C130.253 143.3 131.225 143.072 131.969 142.616C132.713 142.16 133.301 141.524 133.733 140.708L136.793 142.148C136.169 143.468 135.173 144.5 133.805 145.244C132.461 145.988 130.901 146.36 129.125 146.36ZM128.837 130.7C127.517 130.7 126.425 131.084 125.561 131.852C124.721 132.62 124.181 133.736 123.941 135.2H133.409C133.313 133.76 132.857 132.656 132.041 131.888C131.225 131.096 130.157 130.7 128.837 130.7ZM148.857 146.36C147.057 146.36 145.413 146.012 143.925 145.316C142.437 144.62 141.261 143.636 140.397 142.364L143.061 140.06C143.589 141.044 144.345 141.836 145.329 142.436C146.337 143.012 147.537 143.3 148.929 143.3C150.033 143.3 150.909 143.108 151.557 142.724C152.205 142.34 152.529 141.8 152.529 141.104C152.529 140.648 152.373 140.252 152.061 139.916C151.773 139.556 151.209 139.28 150.369 139.088L146.589 138.296C144.669 137.912 143.301 137.288 142.485 136.424C141.669 135.56 141.261 134.48 141.261 133.184C141.261 132.2 141.549 131.288 142.125 130.448C142.725 129.608 143.577 128.936 144.681 128.432C145.785 127.904 147.117 127.64 148.677 127.64C150.453 127.64 151.977 127.964 153.249 128.612C154.545 129.236 155.529 130.136 156.201 131.312L153.537 133.544C153.057 132.584 152.373 131.876 151.485 131.42C150.621 130.94 149.709 130.7 148.749 130.7C147.573 130.7 146.661 130.916 146.013 131.348C145.389 131.756 145.077 132.296 145.077 132.968C145.077 133.424 145.257 133.844 145.617 134.228C145.977 134.588 146.625 134.864 147.561 135.056L151.665 135.92C153.393 136.256 154.605 136.832 155.301 137.648C156.021 138.44 156.381 139.412 156.381 140.564C156.381 142.292 155.709 143.696 154.365 144.776C153.021 145.832 151.185 146.36 148.857 146.36ZM163.016 124.976C162.176 124.976 161.528 124.772 161.072 124.364C160.64 123.932 160.424 123.332 160.424 122.564C160.424 121.796 160.64 121.208 161.072 120.8C161.528 120.392 162.176 120.188 163.016 120.188C163.832 120.188 164.456 120.392 164.888 120.8C165.344 121.208 165.572 121.796 165.572 122.564C165.572 123.332 165.344 123.932 164.888 124.364C164.456 124.772 163.832 124.976 163.016 124.976ZM164.924 128V146H161.072V128H164.924ZM181.103 143.192C182.927 143.192 184.343 143.6 185.351 144.416C186.359 145.208 186.863 146.312 186.863 147.728C186.863 149 186.467 150.08 185.675 150.968C184.883 151.88 183.803 152.564 182.435 153.02C181.067 153.5 179.519 153.74 177.791 153.74C174.815 153.74 172.619 153.284 171.203 152.372C169.811 151.46 169.115 150.32 169.115 148.952C169.115 148.136 169.355 147.404 169.835 146.756C170.315 146.108 171.107 145.664 172.211 145.424C171.539 145.136 171.011 144.74 170.627 144.236C170.243 143.708 170.051 143.036 170.051 142.22C170.051 141.428 170.279 140.732 170.735 140.132C171.191 139.508 171.863 139.04 172.751 138.728C170.855 137.648 169.907 135.98 169.907 133.724C169.907 131.9 170.615 130.436 172.031 129.332C173.447 128.204 175.319 127.64 177.647 127.64C179.159 127.64 180.491 127.88 181.643 128.36C181.835 127.16 182.363 126.176 183.227 125.408C184.091 124.616 185.183 124.22 186.503 124.22C186.623 124.22 186.719 124.22 186.791 124.22L187.403 127.244C187.283 127.22 187.139 127.208 186.971 127.208C184.907 127.208 183.755 127.964 183.515 129.476C184.787 130.58 185.423 131.996 185.423 133.724C185.423 135.572 184.715 137.048 183.299 138.152C181.883 139.256 179.999 139.808 177.647 139.808C176.663 139.808 175.763 139.724 174.947 139.556C174.299 139.724 173.831 139.988 173.543 140.348C173.279 140.684 173.147 141.044 173.147 141.428C173.147 142.604 173.999 143.192 175.703 143.192H181.103ZM177.647 130.34C176.543 130.34 175.619 130.652 174.875 131.276C174.155 131.876 173.795 132.692 173.795 133.724C173.795 134.756 174.155 135.584 174.875 136.208C175.619 136.832 176.543 137.144 177.647 137.144C178.775 137.144 179.699 136.832 180.419 136.208C181.163 135.584 181.535 134.756 181.535 133.724C181.535 132.692 181.163 131.876 180.419 131.276C179.699 130.652 178.775 130.34 177.647 130.34ZM177.791 150.86C179.759 150.86 181.211 150.596 182.147 150.068C183.107 149.54 183.587 148.916 183.587 148.196C183.587 147.644 183.359 147.2 182.903 146.864C182.471 146.528 181.679 146.36 180.527 146.36H174.731C174.035 146.36 173.459 146.54 173.003 146.9C172.571 147.26 172.355 147.728 172.355 148.304C172.355 149.096 172.835 149.72 173.795 150.176C174.755 150.632 176.087 150.86 177.791 150.86ZM190.392 146V128H193.812L193.992 131.096C194.592 129.896 195.42 129.02 196.476 128.468C197.556 127.916 198.756 127.64 200.076 127.64C201.348 127.64 202.488 127.892 203.496 128.396C204.528 128.876 205.344 129.62 205.944 130.628C206.544 131.612 206.844 132.848 206.844 134.336V146H202.992V135.524C202.992 133.748 202.62 132.524 201.876 131.852C201.156 131.156 200.244 130.808 199.14 130.808C198.348 130.808 197.58 130.988 196.836 131.348C196.092 131.708 195.468 132.308 194.964 133.148C194.484 133.964 194.244 135.056 194.244 136.424V146H190.392Z" fill="#555B6E"/>
<path d="M188.996 31.2004C189.394 30.8034 189.71 30.3317 189.925 29.8126C190.14 29.2934 190.251 28.7368 190.251 28.1748C190.251 27.6127 190.14 27.0561 189.925 26.537C189.71 26.0178 189.394 25.5462 188.996 25.1491L176.851 13.0037C176.454 12.6059 175.982 12.2902 175.463 12.0749C174.944 11.8595 174.387 11.7487 173.825 11.7487C173.263 11.7487 172.707 11.8595 172.187 12.0749C171.668 12.2902 171.197 12.6059 170.8 13.0037L151.53 32.2733L134.835 15.5787C131.488 12.2312 126.037 12.2312 122.69 15.5787L114.536 23.7329C111.188 27.0804 111.188 32.5308 114.536 35.8783L131.23 52.5729L111.875 71.9283V90.125H130.072L149.47 70.7266L166.165 87.4212C170.242 91.4983 175.735 89.9962 178.31 87.4212L186.464 79.267C189.812 75.9195 189.812 70.4691 186.464 67.1216L169.77 50.4271L188.996 31.2004ZM120.63 29.7841L128.741 21.63L134.192 27.0804L129.127 32.1875L135.179 38.2387L140.286 33.1316L145.436 38.2816L137.282 46.4358L120.63 29.7841ZM168.825 61.7141L163.718 66.8212L169.77 72.8725L174.877 67.7654L180.327 73.2158L172.173 81.37L155.478 64.6754L163.632 56.5212L168.825 61.7141ZM126.51 81.5416H120.458V75.4904L161.701 34.2475L167.28 39.8266L167.752 40.2987L126.51 81.5416ZM167.752 28.1533L173.804 22.1021L179.855 28.1533L173.804 34.2046L167.752 28.1533Z" fill="#555B6E"/>
</svg>
