<svg width="1200" height="120" xmlns="http://www.w3.org/2000/svg">
    <rect x="10" y="10" width="10" height="10" fill="#88ccaa"/>
    <rect x="40" y="10" width="10" height="10" fill="#88ccaa"/>
    <rect x="70" y="10" width="10" height="10" fill="#88ccaa"/>
    <rect x="100" y="10" width="10" height="10" fill="#88ccaa"/>
    <rect x="130" y="10" width="10" height="10" fill="#88ccaa"/>
    <rect x="160" y="10" width="10" height="10" fill="#88ccaa"/>
    <rect x="190" y="10" width="10" height="10" fill="#88ccaa"/>
    <rect x="220" y="10" width="10" height="10" fill="#88ccaa"/>
    <rect x="250" y="10" width="10" height="10" fill="#88ccaa"/>
    <rect x="280" y="10" width="10" height="10" fill="#88ccaa"/>
    <rect x="310" y="10" width="10" height="10" fill="#88ccaa"/>
    <rect x="340" y="10" width="10" height="10" fill="#88ccaa"/>
    <rect x="370" y="10" width="10" height="10" fill="#88ccaa"/>
    <rect x="400" y="10" width="10" height="10" fill="#88ccaa"/>
    <rect x="430" y="10" width="10" height="10" fill="#88ccaa"/>
    <rect x="460" y="10" width="10" height="10" fill="#88ccaa"/>
    <rect x="490" y="10" width="10" height="10" fill="#88ccaa"/>
    <rect x="520" y="10" width="10" height="10" fill="#88ccaa"/>
    <rect x="550" y="10" width="10" height="10" fill="#88ccaa"/>
    <rect x="580" y="10" width="10" height="10" fill="#88ccaa"/>
    <rect x="610" y="10" width="10" height="10" fill="#88ccaa"/>
    <rect x="640" y="10" width="10" height="10" fill="#88ccaa"/>
    <rect x="670" y="10" width="10" height="10" fill="#88ccaa"/>
    <rect x="700" y="10" width="10" height="10" fill="#88ccaa"/>
    <rect x="730" y="10" width="10" height="10" fill="#88ccaa"/>
    <rect x="760" y="10" width="10" height="10" fill="#88ccaa"/>
    <rect x="790" y="10" width="10" height="10" fill="#88ccaa"/>
    <rect x="820" y="10" width="10" height="10" fill="#88ccaa"/>
    <rect x="850" y="10" width="10" height="10" fill="#88ccaa"/>
    <rect x="880" y="10" width="10" height="10" fill="#88ccaa"/>
    <rect x="910" y="10" width="10" height="10" fill="#88ccaa"/>
    <rect x="940" y="10" width="10" height="10" fill="#88ccaa"/>
    <rect x="970" y="10" width="10" height="10" fill="#88ccaa"/>
    <rect x="1000" y="10" width="10" height="10" fill="#88ccaa"/>
    <rect x="1030" y="10" width="10" height="10" fill="#88ccaa"/>
    <rect x="1060" y="10" width="10" height="10" fill="#88ccaa"/>
    <rect x="1090" y="10" width="10" height="10" fill="#88ccaa"/>
    <rect x="1120" y="10" width="10" height="10" fill="#88ccaa"/>
    <rect x="1150" y="10" width="10" height="10" fill="#88ccaa"/>
    <rect x="1180" y="10" width="10" height="10" fill="#88ccaa"/>

    <rect x="10" y="40" width="10" height="10" fill="#88ccaa"/>
    <rect x="40" y="40" width="10" height="10" fill="#88ccaa"/>
    <rect x="70" y="40" width="10" height="10" fill="#88ccaa"/>
    <rect x="100" y="40" width="10" height="10" fill="#88ccaa"/>
    <rect x="130" y="40" width="10" height="10" fill="#88ccaa"/>
    <rect x="160" y="40" width="10" height="10" fill="#88ccaa"/>
    <rect x="190" y="40" width="10" height="10" fill="#88ccaa"/>
    <rect x="220" y="40" width="10" height="10" fill="#88ccaa"/>
    <rect x="250" y="40" width="10" height="10" fill="#88ccaa"/>
    <rect x="280" y="40" width="10" height="10" fill="#88ccaa"/>
    <rect x="310" y="40" width="10" height="10" fill="#88ccaa"/>
    <rect x="340" y="40" width="10" height="10" fill="#88ccaa"/>
    <rect x="370" y="40" width="10" height="10" fill="#88ccaa"/>
    <rect x="400" y="40" width="10" height="10" fill="#88ccaa"/>
    <rect x="430" y="40" width="10" height="10" fill="#88ccaa"/>
    <rect x="460" y="40" width="10" height="10" fill="#88ccaa"/>
    <rect x="490" y="40" width="10" height="10" fill="#88ccaa"/>
    <rect x="520" y="40" width="10" height="10" fill="#88ccaa"/>
    <rect x="550" y="40" width="10" height="10" fill="#88ccaa"/>
    <rect x="580" y="40" width="10" height="10" fill="#88ccaa"/>
    <rect x="610" y="40" width="10" height="10" fill="#88ccaa"/>
    <rect x="640" y="40" width="10" height="10" fill="#88ccaa"/>
    <rect x="670" y="40" width="10" height="10" fill="#88ccaa"/>
    <rect x="700" y="40" width="10" height="10" fill="#88ccaa"/>
    <rect x="730" y="40" width="10" height="10" fill="#88ccaa"/>
    <rect x="760" y="40" width="10" height="10" fill="#88ccaa"/>
    <rect x="790" y="40" width="10" height="10" fill="#88ccaa"/>
    <rect x="820" y="40" width="10" height="10" fill="#88ccaa"/>
    <rect x="850" y="40" width="10" height="10" fill="#88ccaa"/>
    <rect x="880" y="40" width="10" height="10" fill="#88ccaa"/>
    <rect x="910" y="40" width="10" height="10" fill="#88ccaa"/>
    <rect x="940" y="40" width="10" height="10" fill="#88ccaa"/>
    <rect x="970" y="40" width="10" height="10" fill="#88ccaa"/>
    <rect x="1000" y="40" width="10" height="10" fill="#88ccaa"/>
    <rect x="1030" y="40" width="10" height="10" fill="#88ccaa"/>
    <rect x="1060" y="40" width="10" height="10" fill="#88ccaa"/>
    <rect x="1090" y="40" width="10" height="10" fill="#88ccaa"/>
    <rect x="1120" y="40" width="10" height="10" fill="#88ccaa"/>
    <rect x="1150" y="40" width="10" height="10" fill="#88ccaa"/>
    <rect x="1180" y="40" width="10" height="10" fill="#88ccaa"/>

    <rect x="10" y="70" width="10" height="10" fill="#88ccaa"/>
    <rect x="40" y="70" width="10" height="10" fill="#88ccaa"/>
    <rect x="70" y="70" width="10" height="10" fill="#88ccaa"/>
    <rect x="100" y="70" width="10" height="10" fill="#88ccaa"/>
    <rect x="130" y="70" width="10" height="10" fill="#88ccaa"/>
    <rect x="160" y="70" width="10" height="10" fill="#88ccaa"/>
    <rect x="190" y="70" width="10" height="10" fill="#88ccaa"/>
    <rect x="220" y="70" width="10" height="10" fill="#88ccaa"/>
    <rect x="250" y="70" width="10" height="10" fill="#88ccaa"/>
    <rect x="280" y="70" width="10" height="10" fill="#88ccaa"/>
    <rect x="310" y="70" width="10" height="10" fill="#88ccaa"/>
    <rect x="340" y="70" width="10" height="10" fill="#88ccaa"/>
    <rect x="370" y="70" width="10" height="10" fill="#88ccaa"/>
    <rect x="400" y="70" width="10" height="10" fill="#88ccaa"/>
    <rect x="430" y="70" width="10" height="10" fill="#88ccaa"/>
    <rect x="460" y="70" width="10" height="10" fill="#88ccaa"/>
    <rect x="490" y="70" width="10" height="10" fill="#88ccaa"/>
    <rect x="520" y="70" width="10" height="10" fill="#88ccaa"/>
    <rect x="550" y="70" width="10" height="10" fill="#88ccaa"/>
    <rect x="580" y="70" width="10" height="10" fill="#88ccaa"/>
    <rect x="610" y="70" width="10" height="10" fill="#88ccaa"/>
    <rect x="640" y="70" width="10" height="10" fill="#88ccaa"/>
    <rect x="670" y="70" width="10" height="10" fill="#88ccaa"/>
    <rect x="700" y="70" width="10" height="10" fill="#88ccaa"/>
    <rect x="730" y="70" width="10" height="10" fill="#88ccaa"/>
    <rect x="760" y="70" width="10" height="10" fill="#88ccaa"/>
    <rect x="790" y="70" width="10" height="10" fill="#88ccaa"/>
    <rect x="820" y="70" width="10" height="10" fill="#88ccaa"/>
    <rect x="850" y="70" width="10" height="10" fill="#88ccaa"/>
    <rect x="880" y="70" width="10" height="10" fill="#88ccaa"/>
    <rect x="910" y="70" width="10" height="10" fill="#88ccaa"/>
    <rect x="940" y="70" width="10" height="10" fill="#88ccaa"/>
    <rect x="970" y="70" width="10" height="10" fill="#88ccaa"/>
    <rect x="1000" y="70" width="10" height="10" fill="#88ccaa"/>
    <rect x="1030" y="70" width="10" height="10" fill="#88ccaa"/>
    <rect x="1060" y="70" width="10" height="10" fill="#88ccaa"/>
    <rect x="1090" y="70" width="10" height="10" fill="#88ccaa"/>
    <rect x="1120" y="70" width="10" height="10" fill="#88ccaa"/>
    <rect x="1150" y="70" width="10" height="10" fill="#88ccaa"/>
    <rect x="1180" y="70" width="10" height="10" fill="#88ccaa"/>

    <rect x="10" y="100" width="10" height="10" fill="#88ccaa"/>
    <rect x="40" y="100" width="10" height="10" fill="#88ccaa"/>
    <rect x="70" y="100" width="10" height="10" fill="#88ccaa"/>
    <rect x="100" y="100" width="10" height="10" fill="#88ccaa"/>
    <rect x="130" y="100" width="10" height="10" fill="#88ccaa"/>
    <rect x="160" y="100" width="10" height="10" fill="#88ccaa"/>
    <rect x="190" y="100" width="10" height="10" fill="#88ccaa"/>
    <rect x="220" y="100" width="10" height="10" fill="#88ccaa"/>
    <rect x="250" y="100" width="10" height="10" fill="#88ccaa"/>
    <rect x="280" y="100" width="10" height="10" fill="#88ccaa"/>
    <rect x="310" y="100" width="10" height="10" fill="#88ccaa"/>
    <rect x="340" y="100" width="10" height="10" fill="#88ccaa"/>
    <rect x="370" y="100" width="10" height="10" fill="#88ccaa"/>
    <rect x="400" y="100" width="10" height="10" fill="#88ccaa"/>
    <rect x="430" y="100" width="10" height="10" fill="#88ccaa"/>
    <rect x="460" y="100" width="10" height="10" fill="#88ccaa"/>
    <rect x="490" y="100" width="10" height="10" fill="#88ccaa"/>
    <rect x="520" y="100" width="10" height="10" fill="#88ccaa"/>
    <rect x="550" y="100" width="10" height="10" fill="#88ccaa"/>
    <rect x="580" y="100" width="10" height="10" fill="#88ccaa"/>
    <rect x="610" y="100" width="10" height="10" fill="#88ccaa"/>
    <rect x="640" y="100" width="10" height="10" fill="#88ccaa"/>
    <rect x="670" y="100" width="10" height="10" fill="#88ccaa"/>
    <rect x="700" y="100" width="10" height="10" fill="#88ccaa"/>
    <rect x="730" y="100" width="10" height="10" fill="#88ccaa"/>
    <rect x="760" y="100" width="10" height="10" fill="#88ccaa"/>
    <rect x="790" y="100" width="10" height="10" fill="#88ccaa"/>
    <rect x="820" y="100" width="10" height="10" fill="#88ccaa"/>
    <rect x="850" y="100" width="10" height="10" fill="#88ccaa"/>
    <rect x="880" y="100" width="10" height="10" fill="#88ccaa"/>
    <rect x="910" y="100" width="10" height="10" fill="#88ccaa"/>
    <rect x="940" y="100" width="10" height="10" fill="#88ccaa"/>
    <rect x="970" y="100" width="10" height="10" fill="#88ccaa"/>
    <rect x="1000" y="100" width="10" height="10" fill="#88ccaa"/>
    <rect x="1030" y="100" width="10" height="10" fill="#88ccaa"/>
    <rect x="1060" y="100" width="10" height="10" fill="#88ccaa"/>
    <rect x="1090" y="100" width="10" height="10" fill="#88ccaa"/>
    <rect x="1120" y="100" width="10" height="10" fill="#88ccaa"/>
    <rect x="1150" y="100" width="10" height="10" fill="#88ccaa"/>
    <rect x="1180" y="100" width="10" height="10" fill="#88ccaa"/>
</svg>
