<svg width="1412" height="118" viewBox="0 0 1412 118" fill="none" xmlns="http://www.w3.org/2000/svg">
<rect x="37" width="10" height="10" fill="#89B0AE"/>
<rect x="37" y="73" width="10" height="10" fill="#89B0AE"/>
<rect y="73" width="10" height="10" fill="#89B0AE"/>
<rect width="10" height="10" fill="#89B0AE"/>
<rect x="37" y="35" width="10" height="10" fill="#89B0AE"/>
<rect x="37" y="108" width="10" height="10" fill="#89B0AE"/>
<rect y="108" width="10" height="10" fill="#89B0AE"/>
<rect y="35" width="10" height="10" fill="#89B0AE"/>
<rect x="74" y="35" width="10" height="10" fill="#89B0AE"/>
<rect x="74" y="108" width="10" height="10" fill="#89B0AE"/>
<rect x="74" width="10" height="10" fill="#89B0AE"/>
<rect x="74" y="73" width="10" height="10" fill="#89B0AE"/>
<rect x="1365" y="73" width="10" height="10" fill="#89B0AE"/>
<rect x="1365" y="108" width="10" height="10" fill="#89B0AE"/>
<rect x="1402" y="108" width="10" height="10" fill="#89B0AE"/>
<rect x="1402" y="73" width="10" height="10" fill="#89B0AE"/>
<path d="M528 0H538V10H528V0Z" fill="#89B0AE"/>
<path d="M563 0H573V10H563V0Z" fill="#89B0AE"/>
<path d="M598 0H608V10H598V0Z" fill="#89B0AE"/>
<path d="M633 0H643V10H633V0Z" fill="#89B0AE"/>
<path d="M668 0H678V10H668V0Z" fill="#89B0AE"/>
<path d="M703 0H713V10H703V0Z" fill="#89B0AE"/>
<path d="M738 0H748V10H738V0Z" fill="#89B0AE"/>
<path d="M773 0H783V10H773V0Z" fill="#89B0AE"/>
<path d="M808 0H818V10H808V0Z" fill="#89B0AE"/>
<path d="M843 0H853V10H843V0Z" fill="#89B0AE"/>
<path d="M878 0H888V10H878V0Z" fill="#89B0AE"/>
<path d="M913 0H923V10H913V0Z" fill="#89B0AE"/>
<path d="M528 35H538V45H528V35Z" fill="#89B0AE"/>
<path d="M563 35H573V45H563V35Z" fill="#89B0AE"/>
<path d="M598 35H608V45H598V35Z" fill="#89B0AE"/>
<path d="M633 35H643V45H633V35Z" fill="#89B0AE"/>
<path d="M668 35H678V45H668V35Z" fill="#89B0AE"/>
<path d="M703 35H713V45H703V35Z" fill="#89B0AE"/>
<path d="M738 35H748V45H738V35Z" fill="#89B0AE"/>
<path d="M773 35H783V45H773V35Z" fill="#89B0AE"/>
<path d="M808 35H818V45H808V35Z" fill="#89B0AE"/>
<path d="M843 35H853V45H843V35Z" fill="#89B0AE"/>
<path d="M878 35H888V45H878V35Z" fill="#89B0AE"/>
<path d="M913 35H923V45H913V35Z" fill="#89B0AE"/>
<path d="M528 73H538V83H528V73Z" fill="#89B0AE"/>
<path d="M563 73H573V83H563V73Z" fill="#89B0AE"/>
<path d="M598 73H608V83H598V73Z" fill="#89B0AE"/>
<path d="M633 73H643V83H633V73Z" fill="#89B0AE"/>
<path d="M668 73H678V83H668V73Z" fill="#89B0AE"/>
<path d="M703 73H713V83H703V73Z" fill="#89B0AE"/>
<path d="M738 73H748V83H738V73Z" fill="#89B0AE"/>
<path d="M773 73H783V83H773V73Z" fill="#89B0AE"/>
<path d="M808 73H818V83H808V73Z" fill="#89B0AE"/>
<path d="M843 73H853V83H843V73Z" fill="#89B0AE"/>
<path d="M878 73H888V83H878V73Z" fill="#89B0AE"/>
<path d="M913 73H923V83H913V73Z" fill="#89B0AE"/>
<path d="M528 108H538V118H528V108Z" fill="#89B0AE"/>
<path d="M563 108H573V118H563V108Z" fill="#89B0AE"/>
<path d="M598 108H608V118H598V108Z" fill="#89B0AE"/>
<path d="M633 108H643V118H633V108Z" fill="#89B0AE"/>
<path d="M668 108H678V118H668V108Z" fill="#89B0AE"/>
<path d="M703 108H713V118H703V108Z" fill="#89B0AE"/>
<path d="M738 108H748V118H738V108Z" fill="#89B0AE"/>
<path d="M773 108H783V118H773V108Z" fill="#89B0AE"/>
<path d="M808 108H818V118H808V108Z" fill="#89B0AE"/>
<path d="M843 108H853V118H843V108Z" fill="#89B0AE"/>
<path d="M878 108H888V118H878V108Z" fill="#89B0AE"/>
<path d="M913 108H923V118H913V108Z" fill="#89B0AE"/>
<path d="M107 0H117V10H107V0Z" fill="#89B0AE"/>
<path d="M142 0H152V10H142V0Z" fill="#89B0AE"/>
<path d="M177 0H187V10H177V0Z" fill="#89B0AE"/>
<path d="M212 0H222V10H212V0Z" fill="#89B0AE"/>
<path d="M247 0H257V10H247V0Z" fill="#89B0AE"/>
<path d="M282 0H292V10H282V0Z" fill="#89B0AE"/>
<path d="M317 0H327V10H317V0Z" fill="#89B0AE"/>
<path d="M352 0H362V10H352V0Z" fill="#89B0AE"/>
<path d="M387 0H397V10H387V0Z" fill="#89B0AE"/>
<path d="M422 0H432V10H422V0Z" fill="#89B0AE"/>
<path d="M457 0H467V10H457V0Z" fill="#89B0AE"/>
<path d="M492 0H502V10H492V0Z" fill="#89B0AE"/>
<path d="M107 35H117V45H107V35Z" fill="#89B0AE"/>
<path d="M142 35H152V45H142V35Z" fill="#89B0AE"/>
<path d="M177 35H187V45H177V35Z" fill="#89B0AE"/>
<path d="M212 35H222V45H212V35Z" fill="#89B0AE"/>
<path d="M247 35H257V45H247V35Z" fill="#89B0AE"/>
<path d="M282 35H292V45H282V35Z" fill="#89B0AE"/>
<path d="M317 35H327V45H317V35Z" fill="#89B0AE"/>
<path d="M352 35H362V45H352V35Z" fill="#89B0AE"/>
<path d="M387 35H397V45H387V35Z" fill="#89B0AE"/>
<path d="M422 35H432V45H422V35Z" fill="#89B0AE"/>
<path d="M457 35H467V45H457V35Z" fill="#89B0AE"/>
<path d="M492 35H502V45H492V35Z" fill="#89B0AE"/>
<path d="M107 73H117V83H107V73Z" fill="#89B0AE"/>
<path d="M142 73H152V83H142V73Z" fill="#89B0AE"/>
<path d="M177 73H187V83H177V73Z" fill="#89B0AE"/>
<path d="M212 73H222V83H212V73Z" fill="#89B0AE"/>
<path d="M247 73H257V83H247V73Z" fill="#89B0AE"/>
<path d="M282 73H292V83H282V73Z" fill="#89B0AE"/>
<path d="M317 73H327V83H317V73Z" fill="#89B0AE"/>
<path d="M352 73H362V83H352V73Z" fill="#89B0AE"/>
<path d="M387 73H397V83H387V73Z" fill="#89B0AE"/>
<path d="M422 73H432V83H422V73Z" fill="#89B0AE"/>
<path d="M457 73H467V83H457V73Z" fill="#89B0AE"/>
<path d="M492 73H502V83H492V73Z" fill="#89B0AE"/>
<path d="M107 108H117V118H107V108Z" fill="#89B0AE"/>
<path d="M142 108H152V118H142V108Z" fill="#89B0AE"/>
<path d="M177 108H187V118H177V108Z" fill="#89B0AE"/>
<path d="M212 108H222V118H212V108Z" fill="#89B0AE"/>
<path d="M247 108H257V118H247V108Z" fill="#89B0AE"/>
<path d="M282 108H292V118H282V108Z" fill="#89B0AE"/>
<path d="M317 108H327V118H317V108Z" fill="#89B0AE"/>
<path d="M352 108H362V118H352V108Z" fill="#89B0AE"/>
<path d="M387 108H397V118H387V108Z" fill="#89B0AE"/>
<path d="M422 108H432V118H422V108Z" fill="#89B0AE"/>
<path d="M457 108H467V118H457V108Z" fill="#89B0AE"/>
<path d="M492 108H502V118H492V108Z" fill="#89B0AE"/>
<path d="M948 0H958V10H948V0Z" fill="#89B0AE"/>
<path d="M983 0H993V10H983V0Z" fill="#89B0AE"/>
<path d="M1018 0H1028V10H1018V0Z" fill="#89B0AE"/>
<path d="M1053 0H1063V10H1053V0Z" fill="#89B0AE"/>
<path d="M1088 0H1098V10H1088V0Z" fill="#89B0AE"/>
<path d="M1123 0H1133V10H1123V0Z" fill="#89B0AE"/>
<path d="M1158 0H1168V10H1158V0Z" fill="#89B0AE"/>
<path d="M1193 0H1203V10H1193V0Z" fill="#89B0AE"/>
<path d="M1228 0H1238V10H1228V0Z" fill="#89B0AE"/>
<path d="M1263 0H1273V10H1263V0Z" fill="#89B0AE"/>
<path d="M1298 0H1308V10H1298V0Z" fill="#89B0AE"/>
<path d="M1333 0H1343V10H1333V0Z" fill="#89B0AE"/>
<path d="M948 35H958V45H948V35Z" fill="#89B0AE"/>
<path d="M983 35H993V45H983V35Z" fill="#89B0AE"/>
<path d="M1018 35H1028V45H1018V35Z" fill="#89B0AE"/>
<path d="M1053 35H1063V45H1053V35Z" fill="#89B0AE"/>
<path d="M1088 35H1098V45H1088V35Z" fill="#89B0AE"/>
<path d="M1123 35H1133V45H1123V35Z" fill="#89B0AE"/>
<path d="M1158 35H1168V45H1158V35Z" fill="#89B0AE"/>
<path d="M1193 35H1203V45H1193V35Z" fill="#89B0AE"/>
<path d="M1228 35H1238V45H1228V35Z" fill="#89B0AE"/>
<path d="M1263 35H1273V45H1263V35Z" fill="#89B0AE"/>
<path d="M1298 35H1308V45H1298V35Z" fill="#89B0AE"/>
<path d="M1333 35H1343V45H1333V35Z" fill="#89B0AE"/>
<path d="M948 73H958V83H948V73Z" fill="#89B0AE"/>
<path d="M983 73H993V83H983V73Z" fill="#89B0AE"/>
<path d="M1018 73H1028V83H1018V73Z" fill="#89B0AE"/>
<path d="M1053 73H1063V83H1053V73Z" fill="#89B0AE"/>
<path d="M1088 73H1098V83H1088V73Z" fill="#89B0AE"/>
<path d="M1123 73H1133V83H1123V73Z" fill="#89B0AE"/>
<path d="M1158 73H1168V83H1158V73Z" fill="#89B0AE"/>
<path d="M1193 73H1203V83H1193V73Z" fill="#89B0AE"/>
<path d="M1228 73H1238V83H1228V73Z" fill="#89B0AE"/>
<path d="M1263 73H1273V83H1263V73Z" fill="#89B0AE"/>
<path d="M1298 73H1308V83H1298V73Z" fill="#89B0AE"/>
<path d="M1333 73H1343V83H1333V73Z" fill="#89B0AE"/>
<path d="M948 108H958V118H948V108Z" fill="#89B0AE"/>
<path d="M983 108H993V118H983V108Z" fill="#89B0AE"/>
<path d="M1018 108H1028V118H1018V108Z" fill="#89B0AE"/>
<path d="M1053 108H1063V118H1053V108Z" fill="#89B0AE"/>
<path d="M1088 108H1098V118H1088V108Z" fill="#89B0AE"/>
<path d="M1123 108H1133V118H1123V108Z" fill="#89B0AE"/>
<path d="M1158 108H1168V118H1158V108Z" fill="#89B0AE"/>
<path d="M1193 108H1203V118H1193V108Z" fill="#89B0AE"/>
<path d="M1228 108H1238V118H1228V108Z" fill="#89B0AE"/>
<path d="M1263 108H1273V118H1263V108Z" fill="#89B0AE"/>
<path d="M1298 108H1308V118H1298V108Z" fill="#89B0AE"/>
<path d="M1333 108H1343V118H1333V108Z" fill="#89B0AE"/>
<rect x="1365" width="10" height="10" fill="#89B0AE"/>
<rect x="1365" y="35" width="10" height="10" fill="#89B0AE"/>
<rect x="1402" y="35" width="10" height="10" fill="#89B0AE"/>
<rect x="1402" width="10" height="10" fill="#89B0AE"/>
</svg>
