<svg width="1000" height="150" xmlns="http://www.w3.org/2000/svg">
    <rect x="10" y="10" width="10" height="10" fill="#89B0AE"/>
    <rect x="40" y="10" width="10" height="10" fill="#89B0AE"/>
    <rect x="70" y="10" width="10" height="10" fill="#89B0AE"/>
    <rect x="100" y="10" width="10" height="10" fill="#89B0AE"/>
    <rect x="130" y="10" width="10" height="10" fill="#89B0AE"/>
    <rect x="160" y="10" width="10" height="10" fill="#89B0AE"/>
    <rect x="190" y="10" width="10" height="10" fill="#89B0AE"/>
    <rect x="220" y="10" width="10" height="10" fill="#89B0AE"/>
    <rect x="250" y="10" width="10" height="10" fill="#89B0AE"/>
    <rect x="280" y="10" width="10" height="10" fill="#89B0AE"/>
    <rect x="310" y="10" width="10" height="10" fill="#89B0AE"/>
    <rect x="340" y="10" width="10" height="10" fill="#89B0AE"/>
    <rect x="370" y="10" width="10" height="10" fill="#89B0AE"/>
    <rect x="400" y="10" width="10" height="10" fill="#89B0AE"/>
    <rect x="430" y="10" width="10" height="10" fill="#89B0AE"/>
    <rect x="460" y="10" width="10" height="10" fill="#89B0AE"/>
    <rect x="490" y="10" width="10" height="10" fill="#89B0AE"/>
    <rect x="520" y="10" width="10" height="10" fill="#89B0AE"/>
    <rect x="550" y="10" width="10" height="10" fill="#89B0AE"/>
    <rect x="580" y="10" width="10" height="10" fill="#89B0AE"/>
    <rect x="610" y="10" width="10" height="10" fill="#89B0AE"/>
    <rect x="640" y="10" width="10" height="10" fill="#89B0AE"/>
    <rect x="670" y="10" width="10" height="10" fill="#89B0AE"/>
    <rect x="700" y="10" width="10" height="10" fill="#89B0AE"/>
    <rect x="730" y="10" width="10" height="10" fill="#89B0AE"/>
    <rect x="760" y="10" width="10" height="10" fill="#89B0AE"/>
    <rect x="790" y="10" width="10" height="10" fill="#89B0AE"/>
    <rect x="820" y="10" width="10" height="10" fill="#89B0AE"/>
    <rect x="850" y="10" width="10" height="10" fill="#89B0AE"/>
    <rect x="880" y="10" width="10" height="10" fill="#89B0AE"/>
    <rect x="910" y="10" width="10" height="10" fill="#89B0AE"/>
    <rect x="940" y="10" width="10" height="10" fill="#89B0AE"/>
    <rect x="970" y="10" width="10" height="10" fill="#89B0AE"/>
    <rect x="1000" y="10" width="10" height="10" fill="#89B0AE"/>

    <rect x="10" y="40" width="10" height="10" fill="#89B0AE"/>
    <rect x="40" y="40" width="10" height="10" fill="#89B0AE"/>
    <rect x="70" y="40" width="10" height="10" fill="#89B0AE"/>
    <rect x="100" y="40" width="10" height="10" fill="#89B0AE"/>
    <rect x="130" y="40" width="10" height="10" fill="#89B0AE"/>
    <rect x="160" y="40" width="10" height="10" fill="#89B0AE"/>
    <rect x="190" y="40" width="10" height="10" fill="#89B0AE"/>
    <rect x="220" y="40" width="10" height="10" fill="#89B0AE"/>
    <rect x="250" y="40" width="10" height="10" fill="#89B0AE"/>
    <rect x="280" y="40" width="10" height="10" fill="#89B0AE"/>
    <rect x="310" y="40" width="10" height="10" fill="#89B0AE"/>
    <rect x="340" y="40" width="10" height="10" fill="#89B0AE"/>
    <rect x="370" y="40" width="10" height="10" fill="#89B0AE"/>
    <rect x="400" y="40" width="10" height="10" fill="#89B0AE"/>
    <rect x="430" y="40" width="10" height="10" fill="#89B0AE"/>
    <rect x="460" y="40" width="10" height="10" fill="#89B0AE"/>
    <rect x="490" y="40" width="10" height="10" fill="#89B0AE"/>
    <rect x="520" y="40" width="10" height="10" fill="#89B0AE"/>
    <rect x="550" y="40" width="10" height="10" fill="#89B0AE"/>
    <rect x="580" y="40" width="10" height="10" fill="#89B0AE"/>
    <rect x="610" y="40" width="10" height="10" fill="#89B0AE"/>
    <rect x="640" y="40" width="10" height="10" fill="#89B0AE"/>
    <rect x="670" y="40" width="10" height="10" fill="#89B0AE"/>
    <rect x="700" y="40" width="10" height="10" fill="#89B0AE"/>
    <rect x="730" y="40" width="10" height="10" fill="#89B0AE"/>
    <rect x="760" y="40" width="10" height="10" fill="#89B0AE"/>
    <rect x="790" y="40" width="10" height="10" fill="#89B0AE"/>
    <rect x="820" y="40" width="10" height="10" fill="#89B0AE"/>
    <rect x="850" y="40" width="10" height="10" fill="#89B0AE"/>
    <rect x="880" y="40" width="10" height="10" fill="#89B0AE"/>
    <rect x="910" y="40" width="10" height="10" fill="#89B0AE"/>
    <rect x="940" y="40" width="10" height="10" fill="#89B0AE"/>
    <rect x="970" y="40" width="10" height="10" fill="#89B0AE"/>
    <rect x="1000" y="40" width="10" height="10" fill="#89B0AE"/>

    <rect x="10" y="70" width="10" height="10" fill="#89B0AE"/>
    <rect x="40" y="70" width="10" height="10" fill="#89B0AE"/>
    <rect x="70" y="70" width="10" height="10" fill="#89B0AE"/>
    <rect x="100" y="70" width="10" height="10" fill="#89B0AE"/>
    <rect x="130" y="70" width="10" height="10" fill="#89B0AE"/>
    <rect x="160" y="70" width="10" height="10" fill="#89B0AE"/>
    <rect x="190" y="70" width="10" height="10" fill="#89B0AE"/>
    <rect x="220" y="70" width="10" height="10" fill="#89B0AE"/>
    <rect x="250" y="70" width="10" height="10" fill="#89B0AE"/>
    <rect x="280" y="70" width="10" height="10" fill="#89B0AE"/>
    <rect x="310" y="70" width="10" height="10" fill="#89B0AE"/>
    <rect x="340" y="70" width="10" height="10" fill="#89B0AE"/>
    <rect x="370" y="70" width="10" height="10" fill="#89B0AE"/>
    <rect x="400" y="70" width="10" height="10" fill="#89B0AE"/>
    <rect x="430" y="70" width="10" height="10" fill="#89B0AE"/>
    <rect x="460" y="70" width="10" height="10" fill="#89B0AE"/>
    <rect x="490" y="70" width="10" height="10" fill="#89B0AE"/>
    <rect x="520" y="70" width="10" height="10" fill="#89B0AE"/>
    <rect x="550" y="70" width="10" height="10" fill="#89B0AE"/>
    <rect x="580" y="70" width="10" height="10" fill="#89B0AE"/>
    <rect x="610" y="70" width="10" height="10" fill="#89B0AE"/>
    <rect x="640" y="70" width="10" height="10" fill="#89B0AE"/>
    <rect x="670" y="70" width="10" height="10" fill="#89B0AE"/>
    <rect x="700" y="70" width="10" height="10" fill="#89B0AE"/>
    <rect x="730" y="70" width="10" height="10" fill="#89B0AE"/>
    <rect x="760" y="70" width="10" height="10" fill="#89B0AE"/>
    <rect x="790" y="70" width="10" height="10" fill="#89B0AE"/>
    <rect x="820" y="70" width="10" height="10" fill="#89B0AE"/>
    <rect x="850" y="70" width="10" height="10" fill="#89B0AE"/>
    <rect x="880" y="70" width="10" height="10" fill="#89B0AE"/>
    <rect x="910" y="70" width="10" height="10" fill="#89B0AE"/>
    <rect x="940" y="70" width="10" height="10" fill="#89B0AE"/>
    <rect x="970" y="70" width="10" height="10" fill="#89B0AE"/>
    <rect x="1000" y="70" width="10" height="10" fill="#89B0AE"/>

    <rect x="10" y="100" width="10" height="10" fill="#89B0AE"/>
    <rect x="40" y="100" width="10" height="10" fill="#89B0AE"/>
    <rect x="70" y="100" width="10" height="10" fill="#89B0AE"/>
    <rect x="100" y="100" width="10" height="10" fill="#89B0AE"/>
    <rect x="130" y="100" width="10" height="10" fill="#89B0AE"/>
    <rect x="160" y="100" width="10" height="10" fill="#89B0AE"/>
    <rect x="190" y="100" width="10" height="10" fill="#89B0AE"/>
    <rect x="220" y="100" width="10" height="10" fill="#89B0AE"/>
    <rect x="250" y="100" width="10" height="10" fill="#89B0AE"/>
    <rect x="280" y="100" width="10" height="10" fill="#89B0AE"/>
    <rect x="310" y="100" width="10" height="10" fill="#89B0AE"/>
    <rect x="340" y="100" width="10" height="10" fill="#89B0AE"/>
    <rect x="370" y="100" width="10" height="10" fill="#89B0AE"/>
    <rect x="400" y="100" width="10" height="10" fill="#89B0AE"/>
    <rect x="430" y="100" width="10" height="10" fill="#89B0AE"/>
    <rect x="460" y="100" width="10" height="10" fill="#89B0AE"/>
    <rect x="490" y="100" width="10" height="10" fill="#89B0AE"/>
    <rect x="520" y="100" width="10" height="10" fill="#89B0AE"/>
    <rect x="550" y="100" width="10" height="10" fill="#89B0AE"/>
    <rect x="580" y="100" width="10" height="10" fill="#89B0AE"/>
    <rect x="610" y="100" width="10" height="10" fill="#89B0AE"/>
    <rect x="640" y="100" width="10" height="10" fill="#89B0AE"/>
    <rect x="670" y="100" width="10" height="10" fill="#89B0AE"/>
    <rect x="700" y="100" width="10" height="10" fill="#89B0AE"/>
    <rect x="730" y="100" width="10" height="10" fill="#89B0AE"/>
    <rect x="760" y="100" width="10" height="10" fill="#89B0AE"/>
    <rect x="790" y="100" width="10" height="10" fill="#89B0AE"/>
    <rect x="820" y="100" width="10" height="10" fill="#89B0AE"/>
    <rect x="850" y="100" width="10" height="10" fill="#89B0AE"/>
    <rect x="880" y="100" width="10" height="10" fill="#89B0AE"/>
    <rect x="910" y="100" width="10" height="10" fill="#89B0AE"/>
    <rect x="940" y="100" width="10" height="10" fill="#89B0AE"/>
    <rect x="970" y="100" width="10" height="10" fill="#89B0AE"/>
    <rect x="1000" y="100" width="10" height="10" fill="#89B0AE"/>

    <rect x="10" y="130" width="10" height="10" fill="#89B0AE"/>
    <rect x="40" y="130" width="10" height="10" fill="#89B0AE"/>
    <rect x="70" y="130" width="10" height="10" fill="#89B0AE"/>
    <rect x="100" y="130" width="10" height="10" fill="#89B0AE"/>
    <rect x="130" y="130" width="10" height="10" fill="#89B0AE"/>
    <rect x="160" y="130" width="10" height="10" fill="#89B0AE"/>
    <rect x="190" y="130" width="10" height="10" fill="#89B0AE"/>
    <rect x="220" y="130" width="10" height="10" fill="#89B0AE"/>
    <rect x="250" y="130" width="10" height="10" fill="#89B0AE"/>
    <rect x="280" y="130" width="10" height="10" fill="#89B0AE"/>
    <rect x="310" y="130" width="10" height="10" fill="#89B0AE"/>
    <rect x="340" y="130" width="10" height="10" fill="#89B0AE"/>
    <rect x="370" y="130" width="10" height="10" fill="#89B0AE"/>
    <rect x="400" y="130" width="10" height="10" fill="#89B0AE"/>
    <rect x="430" y="130" width="10" height="10" fill="#89B0AE"/>
    <rect x="460" y="130" width="10" height="10" fill="#89B0AE"/>
    <rect x="490" y="130" width="10" height="10" fill="#89B0AE"/>
    <rect x="520" y="130" width="10" height="10" fill="#89B0AE"/>
    <rect x="550" y="130" width="10" height="10" fill="#89B0AE"/>
    <rect x="580" y="130" width="10" height="10" fill="#89B0AE"/>
    <rect x="610" y="130" width="10" height="10" fill="#89B0AE"/>
    <rect x="640" y="130" width="10" height="10" fill="#89B0AE"/>
    <rect x="670" y="130" width="10" height="10" fill="#89B0AE"/>
    <rect x="700" y="130" width="10" height="10" fill="#89B0AE"/>
    <rect x="730" y="130" width="10" height="10" fill="#89B0AE"/>
    <rect x="760" y="130" width="10" height="10" fill="#89B0AE"/>
    <rect x="790" y="130" width="10" height="10" fill="#89B0AE"/>
    <rect x="820" y="130" width="10" height="10" fill="#89B0AE"/>
    <rect x="850" y="130" width="10" height="10" fill="#89B0AE"/>
    <rect x="880" y="130" width="10" height="10" fill="#89B0AE"/>
    <rect x="910" y="130" width="10" height="10" fill="#89B0AE"/>
    <rect x="940" y="130" width="10" height="10" fill="#89B0AE"/>
    <rect x="970" y="130" width="10" height="10" fill="#89B0AE"/>
    <rect x="1000" y="130" width="10" height="10" fill="#89B0AE"/>
</svg>
