<svg width="1163" height="96" viewBox="0 0 1163 96" fill="none" xmlns="http://www.w3.org/2000/svg">
<rect x="29.8725" width="8.07365" height="8.07365" fill="#89B0AE"/>
<rect x="29.8725" y="58.9377" width="8.07365" height="8.07365" fill="#89B0AE"/>
<rect y="58.9377" width="8.07365" height="8.07365" fill="#89B0AE"/>
<rect width="8.07365" height="8.07365" fill="#89B0AE"/>
<rect x="29.8725" y="28.2578" width="8.07365" height="8.07365" fill="#89B0AE"/>
<rect x="29.8725" y="87.1955" width="8.07365" height="8.07365" fill="#89B0AE"/>
<rect y="87.1955" width="8.07365" height="8.07365" fill="#89B0AE"/>
<rect y="28.2578" width="8.07365" height="8.07365" fill="#89B0AE"/>
<rect x="59.7451" y="28.2578" width="8.07365" height="8.07365" fill="#89B0AE"/>
<rect x="59.7451" y="87.1955" width="8.07365" height="8.07365" fill="#89B0AE"/>
<rect x="59.7451" width="8.07365" height="8.07365" fill="#89B0AE"/>
<rect x="59.7451" y="58.9377" width="8.07365" height="8.07365" fill="#89B0AE"/>
<rect x="1102.05" y="58.9377" width="8.07365" height="8.07365" fill="#89B0AE"/>
<rect x="1102.05" y="87.1955" width="8.07365" height="8.07365" fill="#89B0AE"/>
<rect x="1131.93" y="87.1955" width="8.07365" height="8.07365" fill="#89B0AE"/>
<rect x="1131.93" y="58.9377" width="8.07365" height="8.07365" fill="#89B0AE"/>
<path d="M426.289 -2.38419e-06H434.363V8.07365H426.289V-2.38419e-06Z" fill="#89B0AE"/>
<path d="M454.547 -2.38419e-06H462.62V8.07365H454.547V-2.38419e-06Z" fill="#89B0AE"/>
<path d="M482.804 -2.38419e-06H490.878V8.07365H482.804V-2.38419e-06Z" fill="#89B0AE"/>
<path d="M511.062 -2.38419e-06H519.136V8.07365H511.062V-2.38419e-06Z" fill="#89B0AE"/>
<path d="M539.32 -2.38419e-06H547.394V8.07365H539.32V-2.38419e-06Z" fill="#89B0AE"/>
<path d="M567.578 -2.38419e-06H575.652V8.07365H567.578V-2.38419e-06Z" fill="#89B0AE"/>
<path d="M595.836 -2.38419e-06H603.909V8.07365H595.836V-2.38419e-06Z" fill="#89B0AE"/>
<path d="M624.093 -2.38419e-06H632.167V8.07365H624.093V-2.38419e-06Z" fill="#89B0AE"/>
<path d="M652.351 -2.38419e-06H660.425V8.07365H652.351V-2.38419e-06Z" fill="#89B0AE"/>
<path d="M680.609 -2.38419e-06H688.683V8.07365H680.609V-2.38419e-06Z" fill="#89B0AE"/>
<path d="M708.867 -2.38419e-06H716.94V8.07365H708.867V-2.38419e-06Z" fill="#89B0AE"/>
<path d="M737.125 -2.38419e-06H745.198V8.07365H737.125V-2.38419e-06Z" fill="#89B0AE"/>
<path d="M426.289 28.2578H434.363V36.3314H426.289V28.2578Z" fill="#89B0AE"/>
<path d="M454.547 28.2578H462.62V36.3314H454.547V28.2578Z" fill="#89B0AE"/>
<path d="M482.804 28.2578H490.878V36.3314H482.804V28.2578Z" fill="#89B0AE"/>
<path d="M511.062 28.2578H519.136V36.3314H511.062V28.2578Z" fill="#89B0AE"/>
<path d="M539.32 28.2578H547.394V36.3314H539.32V28.2578Z" fill="#89B0AE"/>
<path d="M567.578 28.2578H575.652V36.3314H567.578V28.2578Z" fill="#89B0AE"/>
<path d="M595.836 28.2578H603.909V36.3314H595.836V28.2578Z" fill="#89B0AE"/>
<path d="M624.093 28.2578H632.167V36.3314H624.093V28.2578Z" fill="#89B0AE"/>
<path d="M652.351 28.2578H660.425V36.3314H652.351V28.2578Z" fill="#89B0AE"/>
<path d="M680.609 28.2578H688.683V36.3314H680.609V28.2578Z" fill="#89B0AE"/>
<path d="M708.867 28.2578H716.94V36.3314H708.867V28.2578Z" fill="#89B0AE"/>
<path d="M737.125 28.2578H745.198V36.3314H737.125V28.2578Z" fill="#89B0AE"/>
<path d="M426.289 58.9377H434.363V67.0113H426.289V58.9377Z" fill="#89B0AE"/>
<path d="M454.547 58.9377H462.62V67.0113H454.547V58.9377Z" fill="#89B0AE"/>
<path d="M482.805 58.9377H490.878V67.0113H482.805V58.9377Z" fill="#89B0AE"/>
<path d="M511.062 58.9377H519.136V67.0113H511.062V58.9377Z" fill="#89B0AE"/>
<path d="M539.32 58.9377H547.394V67.0113H539.32V58.9377Z" fill="#89B0AE"/>
<path d="M567.578 58.9377H575.652V67.0113H567.578V58.9377Z" fill="#89B0AE"/>
<path d="M595.836 58.9377H603.909V67.0113H595.836V58.9377Z" fill="#89B0AE"/>
<path d="M624.093 58.9377H632.167V67.0113H624.093V58.9377Z" fill="#89B0AE"/>
<path d="M652.351 58.9377H660.425V67.0113H652.351V58.9377Z" fill="#89B0AE"/>
<path d="M680.609 58.9377H688.683V67.0113H680.609V58.9377Z" fill="#89B0AE"/>
<path d="M708.867 58.9377H716.94V67.0113H708.867V58.9377Z" fill="#89B0AE"/>
<path d="M737.125 58.9377H745.198V67.0113H737.125V58.9377Z" fill="#89B0AE"/>
<path d="M426.289 87.1955H434.363V95.2691H426.289V87.1955Z" fill="#89B0AE"/>
<path d="M454.547 87.1955H462.62V95.2691H454.547V87.1955Z" fill="#89B0AE"/>
<path d="M482.805 87.1955H490.878V95.2691H482.805V87.1955Z" fill="#89B0AE"/>
<path d="M511.062 87.1955H519.136V95.2691H511.062V87.1955Z" fill="#89B0AE"/>
<path d="M539.32 87.1955H547.394V95.2691H539.32V87.1955Z" fill="#89B0AE"/>
<path d="M567.578 87.1955H575.652V95.2691H567.578V87.1955Z" fill="#89B0AE"/>
<path d="M595.836 87.1955H603.909V95.2691H595.836V87.1955Z" fill="#89B0AE"/>
<path d="M624.093 87.1955H632.167V95.2691H624.093V87.1955Z" fill="#89B0AE"/>
<path d="M652.351 87.1955H660.425V95.2691H652.351V87.1955Z" fill="#89B0AE"/>
<path d="M680.609 87.1955H688.683V95.2691H680.609V87.1955Z" fill="#89B0AE"/>
<path d="M708.867 87.1955H716.94V95.2691H708.867V87.1955Z" fill="#89B0AE"/>
<path d="M737.125 87.1955H745.198V95.2691H737.125V87.1955Z" fill="#89B0AE"/>
<path d="M86.3881 0H94.4617V8.07365H86.3881V0Z" fill="#89B0AE"/>
<path d="M114.646 0H122.72V8.07365H114.646V0Z" fill="#89B0AE"/>
<path d="M142.904 0H150.977V8.07365H142.904V0Z" fill="#89B0AE"/>
<path d="M171.161 0H179.235V8.07365H171.161V0Z" fill="#89B0AE"/>
<path d="M199.419 0H207.493V8.07365H199.419V0Z" fill="#89B0AE"/>
<path d="M227.677 0H235.751V8.07365H227.677V0Z" fill="#89B0AE"/>
<path d="M255.935 0H264.008V8.07365H255.935V0Z" fill="#89B0AE"/>
<path d="M284.193 0H292.266V8.07365H284.193V0Z" fill="#89B0AE"/>
<path d="M312.45 0H320.524V8.07365H312.45V0Z" fill="#89B0AE"/>
<path d="M340.708 0H348.782V8.07365H340.708V0Z" fill="#89B0AE"/>
<path d="M368.966 0H377.04V8.07365H368.966V0Z" fill="#89B0AE"/>
<path d="M397.224 0H405.297V8.07365H397.224V0Z" fill="#89B0AE"/>
<path d="M86.3881 28.2578H94.4617V36.3314H86.3881V28.2578Z" fill="#89B0AE"/>
<path d="M114.646 28.2578H122.72V36.3314H114.646V28.2578Z" fill="#89B0AE"/>
<path d="M142.904 28.2578H150.977V36.3314H142.904V28.2578Z" fill="#89B0AE"/>
<path d="M171.161 28.2578H179.235V36.3314H171.161V28.2578Z" fill="#89B0AE"/>
<path d="M199.419 28.2578H207.493V36.3314H199.419V28.2578Z" fill="#89B0AE"/>
<path d="M227.677 28.2578H235.751V36.3314H227.677V28.2578Z" fill="#89B0AE"/>
<path d="M255.935 28.2578H264.008V36.3314H255.935V28.2578Z" fill="#89B0AE"/>
<path d="M284.193 28.2578H292.266V36.3314H284.193V28.2578Z" fill="#89B0AE"/>
<path d="M312.45 28.2578H320.524V36.3314H312.45V28.2578Z" fill="#89B0AE"/>
<path d="M340.708 28.2578H348.782V36.3314H340.708V28.2578Z" fill="#89B0AE"/>
<path d="M368.966 28.2578H377.04V36.3314H368.966V28.2578Z" fill="#89B0AE"/>
<path d="M397.224 28.2578H405.297V36.3314H397.224V28.2578Z" fill="#89B0AE"/>
<path d="M86.3881 58.9377H94.4617V67.0113H86.3881V58.9377Z" fill="#89B0AE"/>
<path d="M114.646 58.9377H122.72V67.0113H114.646V58.9377Z" fill="#89B0AE"/>
<path d="M142.904 58.9377H150.977V67.0113H142.904V58.9377Z" fill="#89B0AE"/>
<path d="M171.161 58.9377H179.235V67.0113H171.161V58.9377Z" fill="#89B0AE"/>
<path d="M199.419 58.9377H207.493V67.0113H199.419V58.9377Z" fill="#89B0AE"/>
<path d="M227.677 58.9377H235.751V67.0113H227.677V58.9377Z" fill="#89B0AE"/>
<path d="M255.935 58.9377H264.008V67.0113H255.935V58.9377Z" fill="#89B0AE"/>
<path d="M284.193 58.9377H292.266V67.0113H284.193V58.9377Z" fill="#89B0AE"/>
<path d="M312.45 58.9377H320.524V67.0113H312.45V58.9377Z" fill="#89B0AE"/>
<path d="M340.708 58.9377H348.782V67.0113H340.708V58.9377Z" fill="#89B0AE"/>
<path d="M368.966 58.9377H377.04V67.0113H368.966V58.9377Z" fill="#89B0AE"/>
<path d="M397.224 58.9377H405.297V67.0113H397.224V58.9377Z" fill="#89B0AE"/>
<path d="M86.3881 87.1955H94.4617V95.2691H86.3881V87.1955Z" fill="#89B0AE"/>
<path d="M114.646 87.1955H122.72V95.2691H114.646V87.1955Z" fill="#89B0AE"/>
<path d="M142.904 87.1955H150.977V95.2691H142.904V87.1955Z" fill="#89B0AE"/>
<path d="M171.161 87.1955H179.235V95.2691H171.161V87.1955Z" fill="#89B0AE"/>
<path d="M199.419 87.1955H207.493V95.2691H199.419V87.1955Z" fill="#89B0AE"/>
<path d="M227.677 87.1955H235.751V95.2691H227.677V87.1955Z" fill="#89B0AE"/>
<path d="M255.935 87.1955H264.008V95.2691H255.935V87.1955Z" fill="#89B0AE"/>
<path d="M284.193 87.1955H292.266V95.2691H284.193V87.1955Z" fill="#89B0AE"/>
<path d="M312.45 87.1955H320.524V95.2691H312.45V87.1955Z" fill="#89B0AE"/>
<path d="M340.708 87.1955H348.782V95.2691H340.708V87.1955Z" fill="#89B0AE"/>
<path d="M368.966 87.1955H377.04V95.2691H368.966V87.1955Z" fill="#89B0AE"/>
<path d="M397.224 87.1955H405.297V95.2691H397.224V87.1955Z" fill="#89B0AE"/>
<path d="M765.382 -2.38419e-06H773.456V8.07365H765.382V-2.38419e-06Z" fill="#89B0AE"/>
<path d="M793.64 -2.38419e-06H801.714V8.07365H793.64V-2.38419e-06Z" fill="#89B0AE"/>
<path d="M821.898 -2.38419e-06H829.972V8.07365H821.898V-2.38419e-06Z" fill="#89B0AE"/>
<path d="M850.156 -2.38419e-06H858.229V8.07365H850.156V-2.38419e-06Z" fill="#89B0AE"/>
<path d="M878.414 -2.38419e-06H886.487V8.07365H878.414V-2.38419e-06Z" fill="#89B0AE"/>
<path d="M906.671 -2.38419e-06H914.745V8.07365H906.671V-2.38419e-06Z" fill="#89B0AE"/>
<path d="M934.929 -2.38419e-06H943.003V8.07365H934.929V-2.38419e-06Z" fill="#89B0AE"/>
<path d="M963.187 -2.38419e-06H971.261V8.07365H963.187V-2.38419e-06Z" fill="#89B0AE"/>
<path d="M991.445 -2.38419e-06H999.518V8.07365H991.445V-2.38419e-06Z" fill="#89B0AE"/>
<path d="M1019.7 -2.38419e-06H1027.78V8.07365H1019.7V-2.38419e-06Z" fill="#89B0AE"/>
<path d="M1047.96 -2.38419e-06H1056.03V8.07365H1047.96V-2.38419e-06Z" fill="#89B0AE"/>
<path d="M1076.22 -2.38419e-06H1084.29V8.07365H1076.22V-2.38419e-06Z" fill="#89B0AE"/>
<path d="M765.382 28.2578H773.456V36.3314H765.382V28.2578Z" fill="#89B0AE"/>
<path d="M793.64 28.2578H801.714V36.3314H793.64V28.2578Z" fill="#89B0AE"/>
<path d="M821.898 28.2578H829.972V36.3314H821.898V28.2578Z" fill="#89B0AE"/>
<path d="M850.156 28.2578H858.229V36.3314H850.156V28.2578Z" fill="#89B0AE"/>
<path d="M878.414 28.2578H886.487V36.3314H878.414V28.2578Z" fill="#89B0AE"/>
<path d="M906.671 28.2578H914.745V36.3314H906.671V28.2578Z" fill="#89B0AE"/>
<path d="M934.929 28.2578H943.003V36.3314H934.929V28.2578Z" fill="#89B0AE"/>
<path d="M963.187 28.2578H971.261V36.3314H963.187V28.2578Z" fill="#89B0AE"/>
<path d="M991.445 28.2578H999.518V36.3314H991.445V28.2578Z" fill="#89B0AE"/>
<path d="M1019.7 28.2578H1027.78V36.3314H1019.7V28.2578Z" fill="#89B0AE"/>
<path d="M1047.96 28.2578H1056.03V36.3314H1047.96V28.2578Z" fill="#89B0AE"/>
<path d="M1076.22 28.2578H1084.29V36.3314H1076.22V28.2578Z" fill="#89B0AE"/>
<path d="M765.382 58.9377H773.456V67.0113H765.382V58.9377Z" fill="#89B0AE"/>
<path d="M793.64 58.9377H801.714V67.0113H793.64V58.9377Z" fill="#89B0AE"/>
<path d="M821.898 58.9377H829.972V67.0113H821.898V58.9377Z" fill="#89B0AE"/>
<path d="M850.156 58.9377H858.229V67.0113H850.156V58.9377Z" fill="#89B0AE"/>
<path d="M878.414 58.9377H886.487V67.0113H878.414V58.9377Z" fill="#89B0AE"/>
<path d="M906.671 58.9377H914.745V67.0113H906.671V58.9377Z" fill="#89B0AE"/>
<path d="M934.929 58.9377H943.003V67.0113H934.929V58.9377Z" fill="#89B0AE"/>
<path d="M963.187 58.9377H971.261V67.0113H963.187V58.9377Z" fill="#89B0AE"/>
<path d="M991.445 58.9377H999.518V67.0113H991.445V58.9377Z" fill="#89B0AE"/>
<path d="M1019.7 58.9377H1027.78V67.0113H1019.7V58.9377Z" fill="#89B0AE"/>
<path d="M1047.96 58.9377H1056.03V67.0113H1047.96V58.9377Z" fill="#89B0AE"/>
<path d="M1076.22 58.9377H1084.29V67.0113H1076.22V58.9377Z" fill="#89B0AE"/>
<path d="M765.382 87.1955H773.456V95.2691H765.382V87.1955Z" fill="#89B0AE"/>
<path d="M793.64 87.1955H801.714V95.2691H793.64V87.1955Z" fill="#89B0AE"/>
<path d="M821.898 87.1955H829.972V95.2691H821.898V87.1955Z" fill="#89B0AE"/>
<path d="M850.156 87.1955H858.229V95.2691H850.156V87.1955Z" fill="#89B0AE"/>
<path d="M878.414 87.1955H886.487V95.2691H878.414V87.1955Z" fill="#89B0AE"/>
<path d="M906.671 87.1955H914.745V95.2691H906.671V87.1955Z" fill="#89B0AE"/>
<path d="M934.929 87.1955H943.003V95.2691H934.929V87.1955Z" fill="#89B0AE"/>
<path d="M963.187 87.1955H971.261V95.2691H963.187V87.1955Z" fill="#89B0AE"/>
<path d="M991.445 87.1955H999.518V95.2691H991.445V87.1955Z" fill="#89B0AE"/>
<path d="M1019.7 87.1955H1027.78V95.2691H1019.7V87.1955Z" fill="#89B0AE"/>
<path d="M1047.96 87.1955H1056.03V95.2691H1047.96V87.1955Z" fill="#89B0AE"/>
<path d="M1076.22 87.1955H1084.29V95.2691H1076.22V87.1955Z" fill="#89B0AE"/>
<rect x="1102.05" y="-2.38419e-06" width="8.07365" height="8.07365" fill="#89B0AE"/>
<rect x="1102.05" y="28.2578" width="8.07365" height="8.07365" fill="#89B0AE"/>
<rect x="1131.93" y="28.2578" width="8.07365" height="8.07365" fill="#89B0AE"/>
<rect x="1131.93" y="-2.38419e-06" width="8.07365" height="8.07365" fill="#89B0AE"/>
</svg> 
