<svg width="302" height="162" viewBox="0 0 302 162" fill="none" xmlns="http://www.w3.org/2000/svg">
<path d="M60.3822 122.88C62.6862 122.88 64.6782 123.372 66.3582 124.356C68.0382 125.34 69.3342 126.756 70.2462 128.604C71.1582 130.428 71.6142 132.6 71.6142 135.12C71.6142 137.64 71.1582 139.824 70.2462 141.672C69.3342 143.496 68.0382 144.9 66.3582 145.884C64.6782 146.868 62.6862 147.36 60.3822 147.36C58.0782 147.36 56.0862 146.868 54.4062 145.884C52.7502 144.9 51.4662 143.496 50.5542 141.672C49.6422 139.824 49.1862 137.64 49.1862 135.12C49.1862 132.6 49.6422 130.428 50.5542 128.604C51.4662 126.756 52.7502 125.34 54.4062 124.356C56.0862 123.372 58.0782 122.88 60.3822 122.88ZM60.3822 126.228C58.1502 126.228 56.3982 127.008 55.1262 128.568C53.8542 130.104 53.2182 132.288 53.2182 135.12C53.2182 137.952 53.8542 140.148 55.1262 141.708C56.3982 143.244 58.1502 144.012 60.3822 144.012C62.6382 144.012 64.4022 143.244 65.6742 141.708C66.9462 140.148 67.5822 137.952 67.5822 135.12C67.5822 132.288 66.9462 130.104 65.6742 128.568C64.4022 127.008 62.6382 126.228 60.3822 126.228ZM83.2105 147.36C82.0345 147.36 80.9425 147.144 79.9345 146.712C78.9505 146.28 78.1585 145.584 77.5585 144.624C76.9585 143.664 76.6585 142.416 76.6585 140.88V129H80.5105V139.908C80.5105 141.54 80.8465 142.668 81.5185 143.292C82.2145 143.892 83.1985 144.192 84.4705 144.192C85.2865 144.192 86.0545 144.012 86.7745 143.652C87.4945 143.268 88.0705 142.68 88.5025 141.888C88.9585 141.072 89.1865 140.028 89.1865 138.756V129H93.0385V147H89.6545L89.4745 144.084C88.8505 145.212 88.0105 146.04 86.9545 146.568C85.8985 147.096 84.6505 147.36 83.2105 147.36ZM99.0564 147V129H102.332L102.692 132.24C103.676 129.84 105.56 128.64 108.344 128.64C108.704 128.64 109.064 128.676 109.424 128.748C109.784 128.796 110.084 128.88 110.324 129L109.784 132.384C109.52 132.288 109.22 132.216 108.884 132.168C108.572 132.096 108.14 132.06 107.588 132.06C106.82 132.06 106.076 132.264 105.356 132.672C104.66 133.056 104.072 133.656 103.592 134.472C103.136 135.264 102.908 136.26 102.908 137.46V147H99.0564ZM149.736 123.24V147H146.208V133.248L146.46 126.696H146.424L139.188 147H135.984L128.748 126.696H128.712L129 133.248V147H125.436V123.24H131.16L135.948 136.992L137.604 142.644H137.676L139.368 136.992L144.12 123.24H149.736ZM158.2 125.976C157.36 125.976 156.712 125.772 156.256 125.364C155.824 124.932 155.608 124.332 155.608 123.564C155.608 122.796 155.824 122.208 156.256 121.8C156.712 121.392 157.36 121.188 158.2 121.188C159.016 121.188 159.64 121.392 160.072 121.8C160.528 122.208 160.756 122.796 160.756 123.564C160.756 124.332 160.528 124.932 160.072 125.364C159.64 125.772 159.016 125.976 158.2 125.976ZM160.108 129V147H156.256V129H160.108ZM172.974 147.36C171.174 147.36 169.53 147.012 168.042 146.316C166.554 145.62 165.378 144.636 164.514 143.364L167.178 141.06C167.706 142.044 168.462 142.836 169.446 143.436C170.454 144.012 171.654 144.3 173.046 144.3C174.15 144.3 175.026 144.108 175.674 143.724C176.322 143.34 176.646 142.8 176.646 142.104C176.646 141.648 176.49 141.252 176.178 140.916C175.89 140.556 175.326 140.28 174.486 140.088L170.706 139.296C168.786 138.912 167.418 138.288 166.602 137.424C165.786 136.56 165.378 135.48 165.378 134.184C165.378 133.2 165.666 132.288 166.242 131.448C166.842 130.608 167.694 129.936 168.798 129.432C169.902 128.904 171.234 128.64 172.794 128.64C174.57 128.64 176.094 128.964 177.366 129.612C178.662 130.236 179.646 131.136 180.318 132.312L177.654 134.544C177.174 133.584 176.49 132.876 175.602 132.42C174.738 131.94 173.826 131.7 172.866 131.7C171.69 131.7 170.778 131.916 170.13 132.348C169.506 132.756 169.194 133.296 169.194 133.968C169.194 134.424 169.374 134.844 169.734 135.228C170.094 135.588 170.742 135.864 171.678 136.056L175.782 136.92C177.51 137.256 178.722 137.832 179.418 138.648C180.138 139.44 180.498 140.412 180.498 141.564C180.498 143.292 179.826 144.696 178.482 145.776C177.138 146.832 175.302 147.36 172.974 147.36ZM192.029 147.36C190.229 147.36 188.585 147.012 187.097 146.316C185.609 145.62 184.433 144.636 183.569 143.364L186.233 141.06C186.761 142.044 187.517 142.836 188.501 143.436C189.509 144.012 190.709 144.3 192.101 144.3C193.205 144.3 194.081 144.108 194.729 143.724C195.377 143.34 195.701 142.8 195.701 142.104C195.701 141.648 195.545 141.252 195.233 140.916C194.945 140.556 194.381 140.28 193.541 140.088L189.761 139.296C187.841 138.912 186.473 138.288 185.657 137.424C184.841 136.56 184.433 135.48 184.433 134.184C184.433 133.2 184.721 132.288 185.297 131.448C185.897 130.608 186.749 129.936 187.853 129.432C188.957 128.904 190.289 128.64 191.849 128.64C193.625 128.64 195.149 128.964 196.421 129.612C197.717 130.236 198.701 131.136 199.373 132.312L196.709 134.544C196.229 133.584 195.545 132.876 194.657 132.42C193.793 131.94 192.881 131.7 191.921 131.7C190.745 131.7 189.833 131.916 189.185 132.348C188.561 132.756 188.249 133.296 188.249 133.968C188.249 134.424 188.429 134.844 188.789 135.228C189.149 135.588 189.797 135.864 190.733 136.056L194.837 136.92C196.565 137.256 197.777 137.832 198.473 138.648C199.193 139.44 199.553 140.412 199.553 141.564C199.553 143.292 198.881 144.696 197.537 145.776C196.193 146.832 194.357 147.36 192.029 147.36ZM206.188 125.976C205.348 125.976 204.7 125.772 204.244 125.364C203.812 124.932 203.596 124.332 203.596 123.564C203.596 122.796 203.812 122.208 204.244 121.8C204.7 121.392 205.348 121.188 206.188 121.188C207.004 121.188 207.628 121.392 208.06 121.8C208.516 122.208 208.744 122.796 208.744 123.564C208.744 124.332 208.516 124.932 208.06 125.364C207.628 125.772 207.004 125.976 206.188 125.976ZM208.096 129V147H204.244V129H208.096ZM221.935 128.64C223.687 128.64 225.235 129.012 226.579 129.756C227.923 130.5 228.967 131.58 229.711 132.996C230.479 134.388 230.863 136.056 230.863 138C230.863 139.944 230.479 141.624 229.711 143.04C228.967 144.432 227.923 145.5 226.579 146.244C225.235 146.988 223.687 147.36 221.935 147.36C220.183 147.36 218.635 146.988 217.291 146.244C215.947 145.5 214.891 144.432 214.123 143.04C213.355 141.624 212.971 139.944 212.971 138C212.971 136.056 213.355 134.388 214.123 132.996C214.891 131.58 215.947 130.5 217.291 129.756C218.635 129.012 220.183 128.64 221.935 128.64ZM221.935 131.664C220.351 131.664 219.103 132.216 218.191 133.32C217.279 134.4 216.823 135.96 216.823 138C216.823 140.04 217.279 141.612 218.191 142.716C219.103 143.796 220.351 144.336 221.935 144.336C223.519 144.336 224.755 143.796 225.643 142.716C226.555 141.612 227.011 140.04 227.011 138C227.011 135.96 226.555 134.4 225.643 133.32C224.755 132.216 223.519 131.664 221.935 131.664ZM235.709 147V129H239.129L239.309 132.096C239.909 130.896 240.737 130.02 241.793 129.468C242.873 128.916 244.073 128.64 245.393 128.64C246.665 128.64 247.805 128.892 248.813 129.396C249.845 129.876 250.661 130.62 251.261 131.628C251.861 132.612 252.161 133.848 252.161 135.336V147H248.309V136.524C248.309 134.748 247.937 133.524 247.193 132.852C246.473 132.156 245.561 131.808 244.457 131.808C243.665 131.808 242.897 131.988 242.153 132.348C241.409 132.708 240.785 133.308 240.281 134.148C239.801 134.964 239.561 136.056 239.561 137.424V147H235.709Z" fill="#555B6E"/>
<path d="M191.651 25.7299L182.057 16.1541C179.933 14.0535 177.065 12.875 174.075 12.875H128.361C125.377 12.875 122.495 14.0619 120.379 16.1541L110.784 25.7299H87V77.1695H99.9C103.448 77.1695 106.31 74.3129 106.33 70.7924H108.164L125.216 86.1619C131.445 91.2113 140.092 91.332 146.501 86.9264C149.021 89.099 151.742 90.125 154.785 90.125C158.454 90.125 161.901 88.6363 164.622 85.2969C169.076 87.0471 174.337 85.8199 177.522 81.9172L182.803 75.4193C183.931 74.0312 184.637 72.442 185 70.7924H196.67C196.69 74.3129 199.573 77.1695 203.1 77.1695H216V25.7299H191.651ZM96.675 70.732C94.9012 70.732 93.45 69.2836 93.45 67.5133C93.45 65.743 94.9012 64.2945 96.675 64.2945C98.4487 64.2945 99.9 65.743 99.9 67.5133C99.9 69.3037 98.4487 70.732 96.675 70.732ZM175.284 69.3439L170.024 75.8217C169.459 76.5057 168.451 76.6264 167.746 76.0631L162.929 72.1604L156.882 79.5031C155.672 80.9717 153.858 80.4688 153.254 79.9859L145.836 73.649L142.692 77.5115C139.89 80.9516 134.79 81.4746 131.545 78.8393L111.933 61.1361H106.35V35.366H114.795L127.232 22.9738C127.635 22.8129 127.978 22.6721 128.381 22.5111H139.809L132.009 29.6527C126.083 35.0643 125.74 44.1975 131.122 50.0314C134.105 53.2904 143.458 58.3197 151.581 50.9166L153.233 49.4078L175.042 67.0707C175.728 67.634 175.829 68.66 175.284 69.3439ZM196.65 61.1361H182.702C182.238 60.5728 181.714 60.0498 181.15 59.5871L160.449 42.8094L162.969 40.516C164.279 39.309 164.38 37.2771 163.17 35.9695L160.973 33.6158C159.764 32.3082 157.728 32.2277 156.418 33.4146L145.292 43.5939C143.377 45.3441 140.112 45.485 138.318 43.5939C136.443 41.6023 136.605 38.5445 138.56 36.7742L151.782 24.6838C153.274 23.3158 155.209 22.5715 157.224 22.5715L174.095 22.5312C174.518 22.5312 174.922 22.6922 175.204 22.9939L187.64 35.3861H196.65V61.1361ZM206.325 70.732C204.551 70.732 203.1 69.2836 203.1 67.5133C203.1 65.743 204.551 64.2945 206.325 64.2945C208.099 64.2945 209.55 65.743 209.55 67.5133C209.55 69.3037 208.099 70.732 206.325 70.732Z" fill="#555B6E"/>
</svg>
