<svg width="302" height="161" viewBox="0 0 302 161" fill="none" xmlns="http://www.w3.org/2000/svg">
<path d="M96.1896 122.24C98.7096 122.24 100.726 122.9 102.238 124.22C103.774 125.54 104.542 127.364 104.542 129.692C104.542 131.996 103.774 133.82 102.238 135.164C100.726 136.484 98.7096 137.144 96.1896 137.144H90.8976V146H87.0456V122.24H96.1896ZM95.5776 133.832C97.2816 133.832 98.5296 133.484 99.3216 132.788C100.138 132.092 100.546 131.06 100.546 129.692C100.546 128.324 100.138 127.292 99.3216 126.596C98.5296 125.876 97.2816 125.516 95.5776 125.516H90.8976V133.832H95.5776ZM119.48 134.444C119.48 133.244 119.144 132.32 118.472 131.672C117.824 131 116.924 130.664 115.772 130.664C114.692 130.664 113.756 130.916 112.964 131.42C112.196 131.924 111.644 132.74 111.308 133.868L108.068 132.5C108.524 131.036 109.412 129.86 110.732 128.972C112.076 128.084 113.804 127.64 115.916 127.64C117.332 127.64 118.592 127.88 119.696 128.36C120.824 128.816 121.7 129.524 122.324 130.484C122.972 131.42 123.296 132.608 123.296 134.048V142.076C123.296 142.964 123.74 143.408 124.628 143.408C125.06 143.408 125.48 143.348 125.888 143.228L125.672 145.892C125.12 146.156 124.424 146.288 123.584 146.288C122.624 146.288 121.796 146.072 121.1 145.64C120.404 145.208 119.936 144.56 119.696 143.696C119.12 144.584 118.292 145.256 117.212 145.712C116.132 146.144 115.052 146.36 113.972 146.36C112.268 146.36 110.852 145.952 109.724 145.136C108.596 144.32 108.032 143.096 108.032 141.464C108.032 140.144 108.464 139.052 109.328 138.188C110.216 137.324 111.464 136.724 113.072 136.388L119.48 135.128V134.444ZM111.92 141.176C111.92 141.848 112.172 142.388 112.676 142.796C113.204 143.18 113.9 143.372 114.764 143.372C115.58 143.372 116.348 143.24 117.068 142.976C117.788 142.712 118.364 142.28 118.796 141.68C119.252 141.08 119.48 140.3 119.48 139.34V137.828L114.944 138.764C113.912 138.956 113.144 139.232 112.64 139.592C112.16 139.952 111.92 140.48 111.92 141.176ZM136.447 146.36C134.647 146.36 133.003 146.012 131.515 145.316C130.027 144.62 128.851 143.636 127.987 142.364L130.651 140.06C131.179 141.044 131.935 141.836 132.919 142.436C133.927 143.012 135.127 143.3 136.519 143.3C137.623 143.3 138.499 143.108 139.147 142.724C139.795 142.34 140.119 141.8 140.119 141.104C140.119 140.648 139.963 140.252 139.651 139.916C139.363 139.556 138.799 139.28 137.959 139.088L134.179 138.296C132.259 137.912 130.891 137.288 130.075 136.424C129.259 135.56 128.851 134.48 128.851 133.184C128.851 132.2 129.139 131.288 129.715 130.448C130.315 129.608 131.167 128.936 132.271 128.432C133.375 127.904 134.707 127.64 136.267 127.64C138.043 127.64 139.567 127.964 140.839 128.612C142.135 129.236 143.119 130.136 143.791 131.312L141.127 133.544C140.647 132.584 139.963 131.876 139.075 131.42C138.211 130.94 137.299 130.7 136.339 130.7C135.163 130.7 134.251 130.916 133.603 131.348C132.979 131.756 132.667 132.296 132.667 132.968C132.667 133.424 132.847 133.844 133.207 134.228C133.567 134.588 134.215 134.864 135.151 135.056L139.255 135.92C140.983 136.256 142.195 136.832 142.891 137.648C143.611 138.44 143.971 139.412 143.971 140.564C143.971 142.292 143.299 143.696 141.955 144.776C140.611 145.832 138.775 146.36 136.447 146.36ZM155.502 146.36C153.702 146.36 152.058 146.012 150.57 145.316C149.082 144.62 147.906 143.636 147.042 142.364L149.706 140.06C150.234 141.044 150.99 141.836 151.974 142.436C152.982 143.012 154.182 143.3 155.574 143.3C156.678 143.3 157.554 143.108 158.202 142.724C158.85 142.34 159.174 141.8 159.174 141.104C159.174 140.648 159.018 140.252 158.706 139.916C158.418 139.556 157.854 139.28 157.014 139.088L153.234 138.296C151.314 137.912 149.946 137.288 149.13 136.424C148.314 135.56 147.906 134.48 147.906 133.184C147.906 132.2 148.194 131.288 148.77 130.448C149.37 129.608 150.222 128.936 151.326 128.432C152.43 127.904 153.762 127.64 155.322 127.64C157.098 127.64 158.622 127.964 159.894 128.612C161.19 129.236 162.174 130.136 162.846 131.312L160.182 133.544C159.702 132.584 159.018 131.876 158.13 131.42C157.266 130.94 156.354 130.7 155.394 130.7C154.218 130.7 153.306 130.916 152.658 131.348C152.034 131.756 151.722 132.296 151.722 132.968C151.722 133.424 151.902 133.844 152.262 134.228C152.622 134.588 153.27 134.864 154.206 135.056L158.31 135.92C160.038 136.256 161.25 136.832 161.946 137.648C162.666 138.44 163.026 139.412 163.026 140.564C163.026 142.292 162.354 143.696 161.01 144.776C159.666 145.832 157.83 146.36 155.502 146.36ZM169.661 124.976C168.821 124.976 168.173 124.772 167.717 124.364C167.285 123.932 167.069 123.332 167.069 122.564C167.069 121.796 167.285 121.208 167.717 120.8C168.173 120.392 168.821 120.188 169.661 120.188C170.477 120.188 171.101 120.392 171.533 120.8C171.989 121.208 172.217 121.796 172.217 122.564C172.217 123.332 171.989 123.932 171.533 124.364C171.101 124.772 170.477 124.976 169.661 124.976ZM171.569 128V146H167.717V128H171.569ZM185.407 127.64C187.159 127.64 188.707 128.012 190.051 128.756C191.395 129.5 192.439 130.58 193.183 131.996C193.951 133.388 194.335 135.056 194.335 137C194.335 138.944 193.951 140.624 193.183 142.04C192.439 143.432 191.395 144.5 190.051 145.244C188.707 145.988 187.159 146.36 185.407 146.36C183.655 146.36 182.107 145.988 180.763 145.244C179.419 144.5 178.363 143.432 177.595 142.04C176.827 140.624 176.443 138.944 176.443 137C176.443 135.056 176.827 133.388 177.595 131.996C178.363 130.58 179.419 129.5 180.763 128.756C182.107 128.012 183.655 127.64 185.407 127.64ZM185.407 130.664C183.823 130.664 182.575 131.216 181.663 132.32C180.751 133.4 180.295 134.96 180.295 137C180.295 139.04 180.751 140.612 181.663 141.716C182.575 142.796 183.823 143.336 185.407 143.336C186.991 143.336 188.227 142.796 189.115 141.716C190.027 140.612 190.483 139.04 190.483 137C190.483 134.96 190.027 133.4 189.115 132.32C188.227 131.216 186.991 130.664 185.407 130.664ZM199.181 146V128H202.601L202.781 131.096C203.381 129.896 204.209 129.02 205.265 128.468C206.345 127.916 207.545 127.64 208.865 127.64C210.137 127.64 211.277 127.892 212.285 128.396C213.317 128.876 214.133 129.62 214.733 130.628C215.333 131.612 215.633 132.848 215.633 134.336V146H211.781V135.524C211.781 133.748 211.409 132.524 210.665 131.852C209.945 131.156 209.033 130.808 207.929 130.808C207.137 130.808 206.369 130.988 205.625 131.348C204.881 131.708 204.257 132.308 203.753 133.148C203.273 133.964 203.033 135.056 203.033 136.424V146H199.181Z" fill="#555B6E"/>
<path d="M153 8.66669C129.106 8.66669 109.667 28.106 109.667 52C109.667 75.894 129.106 95.3334 153 95.3334C176.894 95.3334 196.333 75.894 196.333 52C196.333 28.106 176.894 8.66669 153 8.66669ZM171.139 55.2067L153 73.346L134.861 55.2067C133.74 54.1002 132.85 52.7822 132.242 51.329C131.635 49.8758 131.322 48.3165 131.322 46.7415C131.322 45.1665 131.635 43.6072 132.242 42.154C132.85 40.7009 133.74 39.3828 134.861 38.2764C135.967 37.1562 137.285 36.2667 138.738 35.6597C140.19 35.0527 141.749 34.7401 143.324 34.7401C144.898 34.7401 146.457 35.0527 147.91 35.6597C149.362 36.2667 150.68 37.1562 151.787 38.2764L153 39.4854L154.209 38.2764C155.315 37.1562 156.633 36.2667 158.086 35.6597C159.539 35.0527 161.098 34.7401 162.672 34.7401C164.246 34.7401 165.805 35.0527 167.258 35.6597C168.711 36.2667 170.029 37.1562 171.135 38.2764C172.256 39.3825 173.146 40.7004 173.754 42.1534C174.362 43.6064 174.675 45.1656 174.676 46.7406C174.676 48.3156 174.364 49.875 173.757 51.3283C173.15 52.7816 172.26 54.0999 171.139 55.2067Z" fill="#555B6E"/>
</svg>

