<?xml version="1.0" encoding="UTF-8" standalone="no"?><!-- Generator: Gravit.io --><svg xmlns="http://www.w3.org/2000/svg" xmlns:xlink="http://www.w3.org/1999/xlink" style="isolation:isolate" viewBox="0 0 1080 1080" width="1080pt" height="1080pt"><defs><clipPath id="_clipPath_O3KLH7O3NzwAccuG58JsAhv3RtJ7qqD9"><rect width="1080" height="1080"/></clipPath></defs><g clip-path="url(#_clipPath_O3KLH7O3NzwAccuG58JsAhv3RtJ7qqD9)"><g><g><circle vector-effect="non-scaling-stroke" cx="539.9999999999999" cy="539.9999999999999" r="523.2606382978724" fill="rgb(190,227,219)"/><path d=" M 284.88 453.579 L 770.1 453.579 L 770.1 663.838 L 284.88 663.838 L 284.88 453.579 Z " fill="rgb(55,71,79)"/><path d=" M 770.1 663.838 C 770.1 610.254 661.491 566.795 527.49 566.795 C 393.49 566.795 284.88 610.271 284.88 663.838 C 284.88 717.425 393.49 760.885 527.49 760.885 C 661.491 760.885 770.1 717.408 770.1 663.838 Z " fill="rgb(55,71,79)"/><path d=" M 512.965 262.723 L 149.05 422.878 C 143.12 425.689 139.337 431.665 139.337 438.227 C 139.337 444.792 143.12 450.768 149.05 453.579 L 512.965 613.668 C 522.369 616.968 532.611 616.968 542.016 613.668 L 905.931 453.579 C 911.861 450.768 915.644 444.792 915.644 438.227 C 915.644 431.665 911.861 425.689 905.931 422.878 L 542.016 262.709 C 532.36 257.857 522.621 257.857 512.965 262.709 L 512.965 262.723 Z " fill="rgb(120,144,156)"/><path d=" M 838.03 460.015 L 514.552 405.056 C 506.466 403.406 496.792 409.908 495.143 417.994 C 493.493 426.081 499.995 435.754 508.081 437.404 L 818.623 489.161 L 818.623 728.537 C 818.623 738.273 825.06 744.709 834.796 744.709 C 844.532 744.709 850.971 738.273 850.971 728.537 L 850.971 476.188 C 850.971 468.102 844.532 461.665 838.03 460.015 Z " fill="rgb(55,71,79)"/><path d=" M 867.144 728.537 C 867.144 746.402 852.661 760.885 834.796 760.885 C 816.931 760.885 802.448 746.402 802.448 728.537 C 802.448 710.672 816.931 696.189 834.796 696.189 C 852.661 696.189 867.144 710.672 867.144 728.537 Z " fill="rgb(137,176,174)"/><path d=" M 883.319 777.057 C 883.319 804.553 834.796 874.1 834.796 874.1 C 834.796 874.1 786.276 804.553 786.276 777.057 C 786.276 749.562 807.3 728.537 834.796 728.537 C 862.291 728.537 883.319 749.562 883.319 777.057 Z " fill="rgb(55,71,79)"/></g></g></g></svg>