<?xml version="1.0" encoding="UTF-8" standalone="no"?><!-- Generator: Gravit.io --><svg xmlns="http://www.w3.org/2000/svg" xmlns:xlink="http://www.w3.org/1999/xlink" style="isolation:isolate" viewBox="0 0 1522 595" width="1522pt" height="595pt"><defs><clipPath id="_clipPath_TjYxNqZXvmpTr7IxGKUNPmWfCzk6eLdM"><rect width="1522" height="595"/></clipPath></defs><g clip-path="url(#_clipPath_TjYxNqZXvmpTr7IxGKUNPmWfCzk6eLdM)"><path d=" M 586.176 326.952 L 586.176 326.952 Q 581.36 344.152 568.288 352.666 L 568.288 352.666 L 568.288 352.666 Q 555.216 361.18 536.468 361.18 L 536.468 361.18 L 536.468 361.18 Q 519.268 361.18 506.712 354.214 L 506.712 354.214 L 506.712 354.214 Q 494.156 347.248 487.448 334.09 L 487.448 334.09 L 487.448 334.09 Q 480.74 320.932 480.74 302.7 L 480.74 302.7 L 480.74 302.7 Q 480.74 284.64 487.448 271.396 L 487.448 271.396 L 487.448 271.396 Q 494.156 258.152 506.712 251.186 L 506.712 251.186 L 506.712 251.186 Q 519.268 244.22 536.296 244.22 L 536.296 244.22 L 536.296 244.22 Q 554.872 244.22 567.772 252.046 L 567.772 252.046 L 567.772 252.046 Q 580.672 259.872 584.8 275.524 L 584.8 275.524 L 558.828 286.016 L 558.828 286.016 Q 556.42 275.696 551.432 271.568 L 551.432 271.568 L 551.432 271.568 Q 546.444 267.44 537.328 267.44 L 537.328 267.44 L 537.328 267.44 Q 524.772 267.44 517.892 276.47 L 517.892 276.47 L 517.892 276.47 Q 511.012 285.5 511.012 302.7 L 511.012 302.7 L 511.012 302.7 Q 511.012 319.9 517.634 328.93 L 517.634 328.93 L 517.634 328.93 Q 524.256 337.96 536.812 337.96 L 536.812 337.96 L 536.812 337.96 Q 546.272 337.96 551.776 333.488 L 551.776 333.488 L 551.776 333.488 Q 557.28 329.016 559.344 319.384 L 559.344 319.384 L 586.176 326.952 L 586.176 326.952 Z  M 683.7 342.776 L 683.7 342.776 Q 686.968 342.776 689.032 342.088 L 689.032 342.088 L 686.796 358.428 L 686.796 358.428 Q 681.808 361.18 675.1 361.18 L 675.1 361.18 L 675.1 361.18 Q 656.524 361.18 652.912 347.936 L 652.912 347.936 L 652.912 347.936 Q 645.172 361.18 622.296 361.18 L 622.296 361.18 L 622.296 361.18 Q 609.396 361.18 602.516 355.676 L 602.516 355.676 L 602.516 355.676 Q 595.636 350.172 595.636 339.68 L 595.636 339.68 L 595.636 339.68 Q 595.636 328.672 603.462 321.878 L 603.462 321.878 L 603.462 321.878 Q 611.288 315.084 629.176 311.472 L 629.176 311.472 L 648.612 307.688 L 648.612 304.592 L 648.612 304.592 Q 648.612 298.744 645.344 295.304 L 645.344 295.304 L 645.344 295.304 Q 642.076 291.864 636.4 291.864 L 636.4 291.864 L 636.4 291.864 Q 629.864 291.864 625.736 294.96 L 625.736 294.96 L 625.736 294.96 Q 621.608 298.056 620.404 305.108 L 620.404 305.108 L 596.668 298.228 L 596.668 298.228 Q 598.904 285.672 609.052 278.706 L 609.052 278.706 L 609.052 278.706 Q 619.2 271.74 636.4 271.74 L 636.4 271.74 L 636.4 271.74 Q 656.524 271.74 667.016 279.996 L 667.016 279.996 L 667.016 279.996 Q 677.508 288.252 677.508 304.764 L 677.508 304.764 L 677.508 336.068 L 677.508 336.068 Q 677.508 342.776 683.7 342.776 L 683.7 342.776 L 683.7 342.776 Z  M 632.96 342.26 L 632.96 342.26 Q 638.98 342.26 643.796 338.906 L 643.796 338.906 L 643.796 338.906 Q 648.612 335.552 648.612 330.048 L 648.612 330.048 L 648.612 322.652 L 634.68 325.92 L 634.68 325.92 Q 629.176 327.296 626.854 329.274 L 626.854 329.274 L 626.854 329.274 Q 624.532 331.252 624.532 334.864 L 624.532 334.864 L 624.532 334.864 Q 624.532 338.476 626.768 340.368 L 626.768 340.368 L 626.768 340.368 Q 629.004 342.26 632.96 342.26 L 632.96 342.26 L 632.96 342.26 Z  M 753.704 271.74 L 753.704 271.74 Q 759.552 271.74 762.992 273.632 L 762.992 273.632 L 759.896 298.4 L 759.896 298.4 Q 758.176 297.368 755.252 296.594 L 755.252 296.594 L 755.252 296.594 Q 752.328 295.82 749.06 295.82 L 749.06 295.82 L 749.06 295.82 Q 740.804 295.82 735.3 301.066 L 735.3 301.066 L 735.3 301.066 Q 729.796 306.312 729.796 316.116 L 729.796 316.116 L 729.796 359.46 L 700.556 359.46 L 700.556 273.46 L 726.356 273.46 L 727.56 292.036 L 727.56 292.036 Q 730.656 282.232 737.278 276.986 L 737.278 276.986 L 737.278 276.986 Q 743.9 271.74 753.704 271.74 L 753.704 271.74 L 753.704 271.74 Z  M 857.248 315.256 L 857.248 315.256 Q 857.248 321.104 856.388 324.888 L 856.388 324.888 L 797.736 324.888 L 797.736 324.888 Q 799.112 332.972 803.67 336.756 L 803.67 336.756 L 803.67 336.756 Q 808.228 340.54 815.796 340.54 L 815.796 340.54 L 815.796 340.54 Q 822.16 340.54 826.202 338.132 L 826.202 338.132 L 826.202 338.132 Q 830.244 335.724 831.62 331.08 L 831.62 331.08 L 855.356 338.648 L 855.356 338.648 Q 851.744 349.656 841.338 355.418 L 841.338 355.418 L 841.338 355.418 Q 830.932 361.18 815.796 361.18 L 815.796 361.18 L 815.796 361.18 Q 793.264 361.18 781.31 349.484 L 781.31 349.484 L 781.31 349.484 Q 769.356 337.788 769.356 316.46 L 769.356 316.46 L 769.356 316.46 Q 769.356 295.132 781.052 283.436 L 781.052 283.436 L 781.052 283.436 Q 792.748 271.74 814.248 271.74 L 814.248 271.74 L 814.248 271.74 Q 835.06 271.74 846.154 283.178 L 846.154 283.178 L 846.154 283.178 Q 857.248 294.616 857.248 315.256 L 857.248 315.256 L 857.248 315.256 Z  M 814.076 292.208 L 814.076 292.208 Q 800.144 292.208 797.564 309.064 L 797.564 309.064 L 829.9 309.064 L 829.9 309.064 Q 827.836 292.208 814.076 292.208 L 814.076 292.208 L 814.076 292.208 Z  M 957.352 315.256 L 957.352 315.256 Q 957.352 321.104 956.492 324.888 L 956.492 324.888 L 897.84 324.888 L 897.84 324.888 Q 899.216 332.972 903.774 336.756 L 903.774 336.756 L 903.774 336.756 Q 908.332 340.54 915.9 340.54 L 915.9 340.54 L 915.9 340.54 Q 922.264 340.54 926.306 338.132 L 926.306 338.132 L 926.306 338.132 Q 930.348 335.724 931.724 331.08 L 931.724 331.08 L 955.46 338.648 L 955.46 338.648 Q 951.848 349.656 941.442 355.418 L 941.442 355.418 L 941.442 355.418 Q 931.036 361.18 915.9 361.18 L 915.9 361.18 L 915.9 361.18 Q 893.368 361.18 881.414 349.484 L 881.414 349.484 L 881.414 349.484 Q 869.46 337.788 869.46 316.46 L 869.46 316.46 L 869.46 316.46 Q 869.46 295.132 881.156 283.436 L 881.156 283.436 L 881.156 283.436 Q 892.852 271.74 914.352 271.74 L 914.352 271.74 L 914.352 271.74 Q 935.164 271.74 946.258 283.178 L 946.258 283.178 L 946.258 283.178 Q 957.352 294.616 957.352 315.256 L 957.352 315.256 L 957.352 315.256 Z  M 914.18 292.208 L 914.18 292.208 Q 900.248 292.208 897.668 309.064 L 897.668 309.064 L 930.004 309.064 L 930.004 309.064 Q 927.94 292.208 914.18 292.208 L 914.18 292.208 L 914.18 292.208 Z  M 1026.84 271.74 L 1026.84 271.74 Q 1032.688 271.74 1036.128 273.632 L 1036.128 273.632 L 1033.032 298.4 L 1033.032 298.4 Q 1031.312 297.368 1028.388 296.594 L 1028.388 296.594 L 1028.388 296.594 Q 1025.464 295.82 1022.196 295.82 L 1022.196 295.82 L 1022.196 295.82 Q 1013.94 295.82 1008.436 301.066 L 1008.436 301.066 L 1008.436 301.066 Q 1002.932 306.312 1002.932 316.116 L 1002.932 316.116 L 1002.932 359.46 L 973.692 359.46 L 973.692 273.46 L 999.492 273.46 L 1000.696 292.036 L 1000.696 292.036 Q 1003.792 282.232 1010.414 276.986 L 1010.414 276.986 L 1010.414 276.986 Q 1017.036 271.74 1026.84 271.74 L 1026.84 271.74 L 1026.84 271.74 Z  M 1098.22 298.056 L 1151.54 298.056 L 1151.54 359.46 L 1130.9 359.46 L 1130.04 346.044 L 1130.04 346.044 Q 1120.236 361.18 1097.532 361.18 L 1097.532 361.18 L 1097.532 361.18 Q 1082.052 361.18 1070.098 354.386 L 1070.098 354.386 L 1070.098 354.386 Q 1058.144 347.592 1051.436 334.434 L 1051.436 334.434 L 1051.436 334.434 Q 1044.728 321.276 1044.728 302.872 L 1044.728 302.872 L 1044.728 302.872 Q 1044.728 284.64 1051.608 271.482 L 1051.608 271.482 L 1051.608 271.482 Q 1058.488 258.324 1071.216 251.272 L 1071.216 251.272 L 1071.216 251.272 Q 1083.944 244.22 1101.316 244.22 L 1101.316 244.22 L 1101.316 244.22 Q 1120.752 244.22 1132.62 251.1 L 1132.62 251.1 L 1132.62 251.1 Q 1144.488 257.98 1151.368 273.288 L 1151.368 273.288 L 1124.02 284.124 L 1124.02 284.124 Q 1121.956 275.696 1116.28 271.568 L 1116.28 271.568 L 1116.28 271.568 Q 1110.604 267.44 1102.176 267.44 L 1102.176 267.44 L 1102.176 267.44 Q 1089.104 267.44 1082.138 276.384 L 1082.138 276.384 L 1082.138 276.384 Q 1075.172 285.328 1075.172 302.7 L 1075.172 302.7 L 1075.172 302.7 Q 1075.172 338.476 1103.036 338.476 L 1103.036 338.476 L 1103.036 338.476 Q 1113.528 338.476 1119.978 333.66 L 1119.978 333.66 L 1119.978 333.66 Q 1126.428 328.844 1126.428 319.728 L 1126.428 319.728 L 1126.428 318.008 L 1098.22 318.008 L 1098.22 298.056 L 1098.22 298.056 Z  M 1228.424 273.46 L 1257.664 273.46 L 1257.664 359.46 L 1231.52 359.46 L 1230.66 343.464 L 1230.66 343.464 Q 1222.576 361.18 1200.904 361.18 L 1200.904 361.18 L 1200.904 361.18 Q 1187.144 361.18 1179.318 353.87 L 1179.318 353.87 L 1179.318 353.87 Q 1171.492 346.56 1171.492 330.908 L 1171.492 330.908 L 1171.492 273.46 L 1200.732 273.46 L 1200.732 323.512 L 1200.732 323.512 Q 1200.732 331.94 1203.656 335.38 L 1203.656 335.38 L 1203.656 335.38 Q 1206.58 338.82 1212.6 338.82 L 1212.6 338.82 L 1212.6 338.82 Q 1219.824 338.82 1224.124 333.918 L 1224.124 333.918 L 1224.124 333.918 Q 1228.424 329.016 1228.424 319.04 L 1228.424 319.04 L 1228.424 273.46 L 1228.424 273.46 Z  M 1331.796 271.74 L 1331.796 271.74 Q 1337.644 271.74 1341.084 273.632 L 1341.084 273.632 L 1337.988 298.4 L 1337.988 298.4 Q 1336.268 297.368 1333.344 296.594 L 1333.344 296.594 L 1333.344 296.594 Q 1330.42 295.82 1327.152 295.82 L 1327.152 295.82 L 1327.152 295.82 Q 1318.896 295.82 1313.392 301.066 L 1313.392 301.066 L 1313.392 301.066 Q 1307.888 306.312 1307.888 316.116 L 1307.888 316.116 L 1307.888 359.46 L 1278.648 359.46 L 1278.648 273.46 L 1304.448 273.46 L 1305.652 292.036 L 1305.652 292.036 Q 1308.748 282.232 1315.37 276.986 L 1315.37 276.986 L 1315.37 276.986 Q 1321.992 271.74 1331.796 271.74 L 1331.796 271.74 L 1331.796 271.74 Z  M 1409.024 273.46 L 1438.264 273.46 L 1438.264 359.46 L 1412.12 359.46 L 1411.26 343.464 L 1411.26 343.464 Q 1403.176 361.18 1381.504 361.18 L 1381.504 361.18 L 1381.504 361.18 Q 1367.744 361.18 1359.918 353.87 L 1359.918 353.87 L 1359.918 353.87 Q 1352.092 346.56 1352.092 330.908 L 1352.092 330.908 L 1352.092 273.46 L 1381.332 273.46 L 1381.332 323.512 L 1381.332 323.512 Q 1381.332 331.94 1384.256 335.38 L 1384.256 335.38 L 1384.256 335.38 Q 1387.18 338.82 1393.2 338.82 L 1393.2 338.82 L 1393.2 338.82 Q 1400.424 338.82 1404.724 333.918 L 1404.724 333.918 L 1404.724 333.918 Q 1409.024 329.016 1409.024 319.04 L 1409.024 319.04 L 1409.024 273.46 L 1409.024 273.46 Z " fill="rgb(85,91,110)"/><circle vector-effect="non-scaling-stroke" cx="256.0000000000001" cy="291.5" r="183.0000000000001" fill="rgb(190,227,219)"/><g><path d=" M 166.777 261.276 L 336.473 261.276 L 336.473 334.81 L 166.777 334.81 L 166.777 261.276 Z " fill="rgb(55,71,79)"/><path d=" M 336.473 334.81 C 336.473 316.07 298.489 300.871 251.625 300.871 C 204.761 300.871 166.777 316.076 166.777 334.81 C 166.777 353.551 204.761 368.75 251.625 368.75 C 298.489 368.75 336.473 353.545 336.473 334.81 Z " fill="rgb(55,71,79)"/><path d=" M 246.545 194.528 L 119.273 250.539 C 117.199 251.522 115.876 253.612 115.876 255.907 C 115.876 258.203 117.199 260.293 119.273 261.276 L 246.545 317.264 C 249.834 318.418 253.416 318.418 256.705 317.264 L 383.977 261.276 C 386.051 260.293 387.374 258.203 387.374 255.907 C 387.374 253.612 386.051 251.522 383.977 250.539 L 256.705 194.523 C 253.328 192.826 249.922 192.826 246.545 194.523 L 246.545 194.528 Z " fill="rgb(120,144,156)"/><path d=" M 360.23 263.527 L 247.1 244.306 C 244.272 243.729 240.889 246.003 240.312 248.831 C 239.735 251.659 242.009 255.042 244.837 255.619 L 353.443 273.72 L 353.443 357.437 C 353.443 360.842 355.694 363.093 359.099 363.093 C 362.504 363.093 364.756 360.842 364.756 357.437 L 364.756 269.183 C 364.756 266.355 362.504 264.104 360.23 263.527 Z " fill="rgb(55,71,79)"/><path d=" M 370.412 357.437 C 370.412 363.685 365.347 368.75 359.099 368.75 C 352.851 368.75 347.786 363.685 347.786 357.437 C 347.786 351.189 352.851 346.124 359.099 346.124 C 365.347 346.124 370.412 351.189 370.412 357.437 Z " fill="rgb(137,176,174)"/><path d=" M 376.069 374.406 C 376.069 384.022 359.099 408.345 359.099 408.345 C 359.099 408.345 342.13 384.022 342.13 374.406 C 342.13 364.79 349.483 357.437 359.099 357.437 C 368.715 357.437 376.069 364.79 376.069 374.406 Z " fill="rgb(55,71,79)"/></g></g></svg>