<svg width="302" height="161" viewBox="0 0 302 161" fill="none" xmlns="http://www.w3.org/2000/svg">
<path d="M92.0343 121.88C94.1703 121.88 96.0183 122.288 97.5783 123.104C99.1383 123.896 100.458 125.072 101.538 126.632L98.9463 129.116C98.0343 127.724 97.0023 126.728 95.8503 126.128C94.7223 125.504 93.3783 125.192 91.8183 125.192C90.0663 125.192 88.7943 125.528 88.0023 126.2C87.2103 126.872 86.8143 127.688 86.8143 128.648C86.8143 129.392 87.0663 130.04 87.5703 130.592C88.0983 131.144 89.0703 131.576 90.4863 131.888L95.3103 132.968C97.5903 133.496 99.2103 134.276 100.17 135.308C101.154 136.316 101.646 137.612 101.646 139.196C101.646 140.66 101.25 141.932 100.458 143.012C99.6663 144.068 98.5623 144.896 97.1463 145.496C95.7303 146.072 94.0863 146.36 92.2143 146.36C89.6943 146.36 87.5463 145.892 85.7703 144.956C83.9943 143.996 82.6263 142.808 81.6663 141.392L84.3303 138.728C85.0743 140 86.1183 141.044 87.4623 141.86C88.8303 142.652 90.4503 143.048 92.3223 143.048C93.9783 143.048 95.2743 142.76 96.2103 142.184C97.1703 141.584 97.6503 140.732 97.6503 139.628C97.6503 138.956 97.4103 138.356 96.9303 137.828C96.4743 137.276 95.6103 136.856 94.3383 136.568L89.1183 135.38C86.9583 134.924 85.3623 134.168 84.3303 133.112C83.2983 132.056 82.7822 130.736 82.7822 129.152C82.7822 127.808 83.1543 126.584 83.8983 125.48C84.6423 124.376 85.6983 123.5 87.0663 122.852C88.4583 122.204 90.1143 121.88 92.0343 121.88ZM112.759 146.36C111.583 146.36 110.491 146.144 109.483 145.712C108.499 145.28 107.707 144.584 107.107 143.624C106.507 142.664 106.207 141.416 106.207 139.88V128H110.059V138.908C110.059 140.54 110.395 141.668 111.067 142.292C111.763 142.892 112.747 143.192 114.019 143.192C114.835 143.192 115.603 143.012 116.323 142.652C117.043 142.268 117.619 141.68 118.051 140.888C118.507 140.072 118.735 139.028 118.735 137.756V128H122.587V146H119.203L119.023 143.084C118.399 144.212 117.559 145.04 116.503 145.568C115.447 146.096 114.199 146.36 112.759 146.36ZM128.605 153.56V128H132.025L132.205 131.384C132.733 130.256 133.537 129.356 134.617 128.684C135.697 127.988 136.945 127.64 138.361 127.64C139.825 127.64 141.145 128.012 142.321 128.756C143.521 129.5 144.469 130.568 145.165 131.96C145.885 133.352 146.245 135.02 146.245 136.964C146.245 138.932 145.885 140.624 145.165 142.04C144.445 143.432 143.473 144.5 142.249 145.244C141.049 145.988 139.717 146.36 138.253 146.36C136.909 146.36 135.745 146.06 134.761 145.46C133.777 144.836 133.009 144.032 132.457 143.048V153.56H128.605ZM137.425 143.228C138.961 143.228 140.173 142.676 141.061 141.572C141.949 140.468 142.393 138.944 142.393 137C142.393 135.056 141.961 133.532 141.097 132.428C140.233 131.3 139.033 130.736 137.497 130.736C135.985 130.736 134.761 131.3 133.825 132.428C132.913 133.556 132.457 135.08 132.457 137C132.457 138.896 132.901 140.408 133.789 141.536C134.701 142.664 135.913 143.228 137.425 143.228ZM151.176 153.56V128H154.596L154.776 131.384C155.304 130.256 156.108 129.356 157.188 128.684C158.268 127.988 159.516 127.64 160.932 127.64C162.396 127.64 163.716 128.012 164.892 128.756C166.092 129.5 167.04 130.568 167.736 131.96C168.456 133.352 168.816 135.02 168.816 136.964C168.816 138.932 168.456 140.624 167.736 142.04C167.016 143.432 166.044 144.5 164.82 145.244C163.62 145.988 162.288 146.36 160.824 146.36C159.48 146.36 158.316 146.06 157.332 145.46C156.348 144.836 155.58 144.032 155.028 143.048V153.56H151.176ZM159.996 143.228C161.532 143.228 162.744 142.676 163.632 141.572C164.52 140.468 164.964 138.944 164.964 137C164.964 135.056 164.532 133.532 163.668 132.428C162.804 131.3 161.604 130.736 160.068 130.736C158.556 130.736 157.332 131.3 156.396 132.428C155.484 133.556 155.028 135.08 155.028 137C155.028 138.896 155.472 140.408 156.36 141.536C157.272 142.664 158.484 143.228 159.996 143.228ZM181.558 127.64C183.31 127.64 184.858 128.012 186.202 128.756C187.546 129.5 188.59 130.58 189.334 131.996C190.102 133.388 190.486 135.056 190.486 137C190.486 138.944 190.102 140.624 189.334 142.04C188.59 143.432 187.546 144.5 186.202 145.244C184.858 145.988 183.31 146.36 181.558 146.36C179.806 146.36 178.258 145.988 176.914 145.244C175.57 144.5 174.514 143.432 173.746 142.04C172.978 140.624 172.594 138.944 172.594 137C172.594 135.056 172.978 133.388 173.746 131.996C174.514 130.58 175.57 129.5 176.914 128.756C178.258 128.012 179.806 127.64 181.558 127.64ZM181.558 130.664C179.974 130.664 178.726 131.216 177.814 132.32C176.902 133.4 176.446 134.96 176.446 137C176.446 139.04 176.902 140.612 177.814 141.716C178.726 142.796 179.974 143.336 181.558 143.336C183.142 143.336 184.378 142.796 185.266 141.716C186.178 140.612 186.634 139.04 186.634 137C186.634 134.96 186.178 133.4 185.266 132.32C184.378 131.216 183.142 130.664 181.558 130.664ZM195.332 146V128H198.608L198.968 131.24C199.952 128.84 201.836 127.64 204.62 127.64C204.98 127.64 205.34 127.676 205.7 127.748C206.06 127.796 206.36 127.88 206.6 128L206.06 131.384C205.796 131.288 205.496 131.216 205.16 131.168C204.848 131.096 204.416 131.06 203.864 131.06C203.096 131.06 202.352 131.264 201.632 131.672C200.936 132.056 200.348 132.656 199.868 133.472C199.412 134.264 199.184 135.26 199.184 136.46V146H195.332ZM220.772 128V131.024H214.58V140.6C214.58 141.464 214.82 142.112 215.3 142.544C215.78 142.952 216.404 143.156 217.172 143.156C217.844 143.156 218.408 143.06 218.864 142.868C219.344 142.652 219.788 142.364 220.196 142.004L221.06 144.812C220.508 145.292 219.824 145.676 219.008 145.964C218.216 146.228 217.328 146.36 216.344 146.36C214.76 146.36 213.428 145.976 212.348 145.208C211.268 144.416 210.728 143.096 210.728 141.248V131.024H207.272V128H210.728V123.788L214.58 122.708V128H220.772Z" fill="#555B6E"/>
<path d="M189.75 53.9717C189.75 29.7242 170.935 13.25 150 13.25C129.286 13.25 110.25 29.3708 110.25 54.2367C107.6 55.7383 105.833 58.565 105.833 61.8333V70.6667C105.833 75.525 109.808 79.5 114.667 79.5C117.096 79.5 119.083 77.5125 119.083 75.0833V53.8392C119.083 36.9233 132.113 22.1275 149.028 21.6417C153.168 21.5158 157.291 22.2222 161.153 23.719C165.015 25.2159 168.538 27.4727 171.511 30.3558C174.485 33.2389 176.85 36.6896 178.465 40.5034C180.081 44.3172 180.914 48.4165 180.917 52.5583V83.9167H150C147.571 83.9167 145.583 85.9042 145.583 88.3333C145.583 90.7625 147.571 92.75 150 92.75H180.917C185.775 92.75 189.75 88.775 189.75 83.9167V78.5283C192.356 77.1592 194.167 74.465 194.167 71.285V61.1267C194.167 58.035 192.356 55.3408 189.75 53.9717Z" fill="#555B6E"/>
<path d="M136.75 61.8333C139.189 61.8333 141.167 59.8559 141.167 57.4167C141.167 54.9774 139.189 53 136.75 53C134.311 53 132.333 54.9774 132.333 57.4167C132.333 59.8559 134.311 61.8333 136.75 61.8333Z" fill="#555B6E"/>
<path d="M163.25 61.8333C165.689 61.8333 167.667 59.8559 167.667 57.4167C167.667 54.9774 165.689 53 163.25 53C160.811 53 158.833 54.9774 158.833 57.4167C158.833 59.8559 160.811 61.8333 163.25 61.8333Z" fill="#555B6E"/>
<path d="M176.5 48.7158C175.447 42.5066 172.231 36.8702 167.421 32.8043C162.612 28.7384 156.519 26.5052 150.221 26.5C136.838 26.5 122.44 37.5858 123.588 54.9875C129.035 52.7588 133.845 49.2171 137.59 44.678C141.335 40.139 143.899 34.7438 145.053 28.9733C150.839 40.5892 162.72 48.5833 176.5 48.7158Z" fill="#555B6E"/>
</svg>
