<svg width="698" height="628" viewBox="0 0 698 628" fill="none" xmlns="http://www.w3.org/2000/svg">
<g clip-path="url(#clip0)">
<path d="M299.546 142.856H296.245V52.3705C296.245 45.4931 294.891 38.6831 292.261 32.3292C289.631 25.9753 285.776 20.202 280.917 15.339C276.057 10.4759 270.288 6.61835 263.938 3.98648C257.588 1.35461 250.783 6.50852e-06 243.91 1.46576e-10H52.335C45.4623 -1.62708e-05 38.6569 1.35457 32.3073 3.98642C25.9577 6.61827 20.1884 10.4758 15.3286 15.3389C10.4689 20.2019 6.61387 25.9752 3.98379 32.329C1.3537 38.6829 1.40919e-05 45.493 0 52.3703V548.78C-1.31353e-05 562.67 5.5138 575.99 15.3285 585.812C25.1432 595.633 38.4547 601.151 52.3348 601.151H243.91C257.79 601.151 271.102 595.633 280.916 585.812C290.731 575.99 296.245 562.67 296.245 548.78V207.265H299.546L299.546 142.856Z" fill="#555B6E"/>
<path d="M246.022 13.625H221.015C222.165 16.4464 222.604 19.5074 222.293 22.5385C221.982 25.5696 220.932 28.4778 219.233 31.0068C217.535 33.5357 215.241 35.6079 212.554 37.0408C209.866 38.4737 206.868 39.2232 203.823 39.2235H94.0722C91.0272 39.2233 88.029 38.4737 85.3418 37.0408C82.6545 35.608 80.3606 33.5358 78.6622 31.0068C76.9637 28.4778 75.9129 25.5697 75.6022 22.5386C75.2915 19.5074 75.7305 16.4464 76.8805 13.625H53.5239C43.1585 13.625 33.2175 17.7455 25.888 25.08C18.5585 32.4144 14.4408 42.3621 14.4408 52.7346V548.416C14.4408 553.552 15.4517 558.638 17.4158 563.383C19.3799 568.128 22.2588 572.439 25.888 576.071C29.5172 579.702 33.8256 582.583 38.5674 584.549C43.3092 586.514 48.3914 587.526 53.5239 587.526H246.022C251.154 587.526 256.237 586.514 260.978 584.549C265.72 582.583 270.029 579.702 273.658 576.071C277.287 572.439 280.166 568.128 282.13 563.383C284.094 558.638 285.105 553.552 285.105 548.416V52.7346C285.105 47.5987 284.094 42.513 282.13 37.768C280.166 33.023 277.287 28.7116 273.658 25.0799C270.029 21.4483 265.72 18.5675 260.978 16.602C256.237 14.6366 251.154 13.625 246.022 13.625Z" fill="white"/>
<path d="M260.617 111.088H38.929V490.062H260.617V111.088Z" fill="#E6E6E6"/>
<path d="M623.411 440.435L625.082 498.959L642.906 567.515C642.906 567.515 639.007 579.22 641.792 582.007C644.577 584.794 657.388 589.81 657.388 589.81L646.805 443.78L623.411 440.435Z" fill="#E6E6E6"/>
<path d="M662.108 581.721C662.108 581.721 668.464 595.715 659.566 596.987C650.667 598.259 609.564 601.651 612.106 594.442C614.648 587.234 645.582 580.449 645.582 580.449L662.108 581.721Z" fill="#2F2E41"/>
<path d="M685.794 388.6C685.794 388.6 679.11 424.829 674.654 430.96C670.198 437.091 676.882 481.681 676.882 481.681C676.882 481.681 686.908 545.778 682.452 555.811C677.996 565.843 679.11 562.499 679.667 568.073C680.224 573.646 681.338 578.105 679.667 583.122C677.996 588.138 677.996 587.581 677.439 590.367C676.882 593.154 677.439 608.203 677.439 608.203C677.439 608.203 653.489 616.564 649.59 604.302C649.59 604.302 655.16 596.498 653.489 590.367C651.746 584.197 650.81 577.828 650.704 571.417V559.712L625.082 463.845L618.955 429.288C618.955 429.288 620.626 394.174 626.753 390.83C632.88 387.485 685.794 388.6 685.794 388.6Z" fill="#E6E6E6"/>
<path d="M675.768 605.416C675.768 605.416 684.123 623.81 672.426 625.482C660.73 627.154 606.702 631.613 610.043 622.137C613.385 612.662 654.046 603.744 654.046 603.744L675.768 605.416Z" fill="#2F2E41"/>
<path d="M665.18 228.102C677.484 228.102 687.459 218.12 687.459 205.807C687.459 193.494 677.484 183.512 665.18 183.512C652.875 183.512 642.9 193.494 642.9 205.807C642.9 218.12 652.875 228.102 665.18 228.102Z" fill="#FFD6BA"/>
<path d="M680.836 215.659L680.421 244.131L653.106 244.223C653.106 244.223 660.038 221.935 656.933 217.274C653.828 212.613 680.836 215.659 680.836 215.659Z" fill="#FFD6BA"/>
<path d="M640.121 259.848C640.121 259.848 659.616 234.767 674.654 245.357C689.693 255.947 695.263 281.028 695.263 281.028L691.921 351.257C691.921 351.257 684.123 386.928 685.794 388.6C687.465 390.272 684.123 391.387 684.123 391.387L625.082 393.059C625.082 393.059 626.753 390.83 621.74 384.141C616.727 377.453 622.854 368.535 621.74 365.191C620.626 361.847 640.121 259.848 640.121 259.848Z" fill="#555B6E"/>
<path d="M645.691 403.649C645.691 403.649 644.577 417.583 636.222 419.813C633.089 420.649 630.739 419.055 629.026 416.736C627.426 414.514 626.529 411.863 626.451 409.125C626.373 406.388 627.118 403.689 628.588 401.38L630.652 398.076L645.691 403.649Z" fill="#FFD6BA"/>
<path d="M697.212 231.701C697.212 231.701 697.769 242.849 697.212 244.521C696.655 246.193 696.098 247.865 697.212 249.537C698.326 251.209 697.769 256.783 696.655 257.34C695.541 257.898 698.883 262.914 697.769 266.258C696.655 269.602 695.541 270.717 694.984 271.832C694.427 272.946 693.53 274.944 693.53 274.944C693.53 274.944 677.161 240.062 663.793 248.422C650.425 256.783 639.842 259.57 639.842 259.57C639.842 259.57 647.083 220.554 697.212 231.701Z" fill="#555B6E"/>
<path d="M672.983 257.619C672.983 257.619 690.807 259.291 689.693 282.7C688.579 306.11 691.364 342.896 691.364 342.896C691.364 342.896 660.729 389.715 655.717 393.059C650.704 396.403 650.147 395.846 650.704 398.633C651.261 401.42 651.818 403.649 649.59 405.879C648.274 407.204 646.773 408.33 645.134 409.223C645.134 409.223 627.31 403.092 628.981 397.518C630.652 391.944 638.45 383.027 638.45 383.027C638.45 383.027 651.818 361.289 652.375 357.945C652.932 354.601 652.932 355.158 654.603 353.486C656.273 351.814 660.729 345.126 660.729 341.781V331.191L656.06 274.598C655.848 272.293 656.126 269.97 656.875 267.78C657.624 265.59 658.828 263.583 660.408 261.892C663.059 259.117 667.065 256.908 672.983 257.619Z" fill="#555B6E"/>
<path d="M650.811 188.614C649.36 189.016 647.83 189.051 646.362 188.714C644.893 188.378 643.531 187.681 642.399 186.686C640.222 184.616 639.49 181.029 641.039 178.454C642.377 176.231 644.979 175.143 647.455 174.37C652.916 172.667 658.603 171.799 664.323 171.796C667.05 171.795 669.898 172.027 672.232 173.44C673.387 174.138 674.365 175.098 675.506 175.818C677.605 177.141 680.126 177.581 682.431 178.501C684.788 179.459 686.911 180.913 688.658 182.764C690.404 184.615 691.733 186.819 692.554 189.229C693.083 190.863 693.413 192.555 693.538 194.268C693.915 198.96 693.086 203.671 691.131 207.953C688.023 214.734 682.108 220.436 681.272 227.849C678.088 225.175 677.155 220.688 674.688 217.339C672.852 214.862 670.231 213.082 667.254 212.289C666.422 212.179 665.639 211.829 665.002 211.282C664.574 210.689 664.329 209.983 664.298 209.252L662.769 198.238C662.458 195.996 662.038 193.547 660.319 192.076C659.241 191.273 657.991 190.731 656.669 190.491C653.541 189.713 650.354 189.193 647.141 188.936" fill="#2F2E41"/>
<path opacity="0.1" d="M688.655 350.858L657.388 391.462C657.388 391.462 686.179 367.378 688.655 350.858Z" fill="black"/>
<path opacity="0.1" d="M658.642 305.902L658.939 344.25L640.779 371.508L655.637 340.946L658.642 305.902Z" fill="black"/>
<path d="M414.429 103.415C422.587 144.549 424.91 186.63 421.328 228.413C420.387 239.292 419.042 250.126 417.294 260.914C416.496 265.818 415.588 270.699 414.654 275.579C414.12 278.375 412.998 281.856 414.755 284.488C418.177 289.615 429.905 288.277 435.073 288.444C445.824 288.792 456.59 288.851 467.345 289.039L499.701 289.604L515.28 289.876C520.588 289.968 526.402 290.792 531.668 290.112C538.598 289.218 536.91 281.955 536.805 276.559C536.598 265.891 536.314 255.225 535.953 244.56C534.523 202.299 531.891 160.102 528.056 117.969C527.567 112.593 527.872 106.162 526.425 100.965C525.84 98.8639 525.258 98.2564 522.978 97.879C517.754 97.0144 511.529 97.9248 506.244 97.9616L488.572 98.0846L416.705 98.5851C416.238 98.6013 415.795 98.7986 415.47 99.1353C415.145 99.4721 414.963 99.922 414.963 100.39C414.963 100.858 415.145 101.308 415.47 101.645C415.795 101.982 416.238 102.179 416.705 102.195L475.613 101.785L501.532 101.605L515.67 101.506C518.575 101.486 521.291 100.606 523.113 103.805C524.266 105.829 523.794 110.891 524.013 113.246C527.533 151.021 530.086 188.868 531.673 226.79C532.069 236.266 532.405 245.744 532.68 255.225C532.795 259.175 532.899 263.126 532.993 267.077C533.049 269.447 533.101 271.818 533.15 274.188C533.2 276.633 534.212 281.425 533.324 283.671C531.433 288.461 522.999 286.4 518.875 286.328L504.495 286.077L475.734 285.575L446.973 285.073C442.218 284.99 437.457 284.953 432.705 284.75C431.128 284.683 429.55 284.608 427.975 284.495C423.287 284.161 418.24 285.27 417.683 278.787C417.339 274.786 419.526 269.268 420.209 265.266C420.98 260.746 421.681 256.215 422.311 251.673C423.489 243.186 424.428 234.672 425.127 226.129C428.43 184.768 426.001 143.149 417.908 102.455C417.458 100.178 413.98 101.142 414.429 103.415L414.429 103.415Z" fill="#89B0AE"/>
<path d="M431.018 112.707H454.881C455.348 112.691 455.791 112.494 456.116 112.157C456.441 111.82 456.623 111.37 456.623 110.902C456.623 110.434 456.441 109.984 456.116 109.647C455.791 109.31 455.348 109.113 454.881 109.097H431.018C430.55 109.113 430.107 109.31 429.782 109.647C429.457 109.984 429.275 110.434 429.275 110.902C429.275 111.37 429.457 111.82 429.782 112.157C430.107 112.494 430.55 112.691 431.018 112.707Z" fill="#89B0AE"/>
<path d="M431.016 120.852L453.509 120.001C455.823 119.913 455.835 116.303 453.509 116.39L431.016 117.241C428.702 117.329 428.69 120.94 431.016 120.852Z" fill="#89B0AE"/>
<path d="M431.018 127.717H452.835C453.303 127.701 453.746 127.503 454.071 127.167C454.396 126.83 454.578 126.38 454.578 125.912C454.578 125.444 454.396 124.994 454.071 124.657C453.746 124.32 453.303 124.123 452.835 124.107H431.018C430.55 124.123 430.107 124.32 429.782 124.657C429.457 124.994 429.275 125.444 429.275 125.912C429.275 126.38 429.457 126.83 429.782 127.167C430.107 127.503 430.55 127.701 431.018 127.717Z" fill="#89B0AE"/>
<path d="M503.318 111.012C498.421 108.455 493.976 112.66 493.286 117.464C492.949 119.813 492.876 123.023 494.372 125.018C495.899 127.056 498.836 127.91 501.276 128.061C505.933 128.349 510.888 125.749 512.034 120.977C512.574 118.858 512.31 116.614 511.294 114.678C510.279 112.743 508.582 111.252 506.533 110.494C504.335 109.731 503.39 113.218 505.574 113.975C506.586 114.396 507.435 115.135 507.991 116.08C508.548 117.025 508.783 118.126 508.661 119.216C508.517 120.47 507.969 121.643 507.099 122.557C506.228 123.47 505.084 124.074 503.839 124.277C500.861 124.963 497.372 124.227 496.796 120.866C496.365 118.351 497.73 112.163 501.497 114.13C503.553 115.203 505.379 112.089 503.318 111.012H503.318Z" fill="#89B0AE"/>
<path d="M435.79 147.515C462.038 147.792 488.259 146.981 514.453 145.083L512.713 142.798C508.425 153.669 508.543 165.128 509.112 176.629C509.254 179.51 510.158 183.396 509.573 186.25C508.839 189.839 505.619 188.981 502.417 189.085C495.364 189.313 488.309 189.477 481.253 189.577C474.589 189.671 467.924 189.708 461.26 189.688C458.123 189.678 454.987 189.656 451.851 189.621C448.168 189.58 443.982 190.65 443.031 186.382C442.422 183.647 443.035 180.051 443.037 177.239L443.044 166.953L443.058 146.382C443.042 145.914 442.844 145.471 442.508 145.146C442.171 144.82 441.722 144.639 441.254 144.639C440.786 144.639 440.336 144.82 440 145.146C439.663 145.471 439.466 145.914 439.45 146.382L439.433 171.525L439.426 182.953C439.424 185.223 438.953 187.966 439.8 190.121C441.748 195.078 450.167 193.218 454.203 193.255C462.435 193.331 470.668 193.319 478.901 193.218C487.133 193.118 495.363 192.931 503.592 192.657C507.137 192.539 512.042 193.346 513.118 188.971C513.872 185.903 512.993 181.904 512.832 178.774C512.648 175.202 512.451 171.63 512.403 168.053C512.291 159.7 513.109 151.574 516.192 143.757C516.264 143.489 516.274 143.208 516.221 142.936C516.167 142.664 516.052 142.407 515.884 142.187C515.716 141.966 515.499 141.787 515.251 141.663C515.003 141.539 514.73 141.474 514.453 141.472C488.272 143.37 462.051 144.181 435.79 143.905C435.323 143.921 434.88 144.119 434.555 144.455C434.229 144.792 434.048 145.242 434.048 145.71C434.048 146.178 434.229 146.628 434.555 146.965C434.88 147.302 435.323 147.499 435.79 147.515L435.79 147.515Z" fill="#89B0AE"/>
<path d="M443.271 149.477C454.506 153.456 465.46 158.189 476.058 163.645C485.566 168.563 498.014 173.934 504.557 182.722C505.929 184.564 509.062 182.766 507.673 180.9C500.991 171.926 489.487 166.645 479.824 161.545C468.346 155.517 456.451 150.32 444.23 145.996C442.038 145.215 441.095 148.702 443.271 149.477L443.271 149.477Z" fill="#89B0AE"/>
<path d="M513.839 143.048C501.917 148.149 491.816 157.979 481.162 165.262C469.629 173.145 457.754 180.482 445.535 187.272C443.507 188.405 445.324 191.524 447.356 190.389C459.549 183.576 471.424 176.239 482.983 168.379C493.635 161.097 503.741 151.265 515.66 146.165C517.789 145.254 515.953 142.143 513.839 143.048V143.048Z" fill="#89B0AE"/>
<path d="M435.79 219.721C462.038 219.997 488.259 219.186 514.453 217.288L512.713 215.003C508.425 225.875 508.543 237.334 509.112 248.834C509.254 251.716 510.158 255.602 509.573 258.456C508.839 262.045 505.619 261.187 502.417 261.29C495.364 261.518 488.309 261.682 481.253 261.782C474.589 261.877 467.924 261.914 461.26 261.894C458.123 261.884 454.987 261.862 451.851 261.827C448.168 261.786 443.982 262.856 443.031 258.587C442.422 255.853 443.035 252.257 443.037 249.445L443.044 239.159L443.058 218.588C443.042 218.12 442.844 217.677 442.508 217.351C442.171 217.026 441.722 216.844 441.254 216.844C440.786 216.844 440.336 217.026 440 217.351C439.663 217.677 439.466 218.12 439.45 218.588L439.433 243.73L439.426 255.159C439.424 257.429 438.953 260.171 439.8 262.326C441.748 267.284 450.167 265.424 454.203 265.461C462.435 265.537 470.668 265.524 478.901 265.423C487.133 265.324 495.363 265.137 503.592 264.863C507.137 264.745 512.042 265.551 513.118 261.176C513.872 258.109 512.993 254.11 512.832 250.98C512.648 247.408 512.451 243.835 512.403 240.258C512.291 231.906 513.109 223.78 516.192 215.963C516.264 215.695 516.274 215.414 516.221 215.142C516.167 214.87 516.052 214.613 515.884 214.392C515.716 214.172 515.499 213.993 515.251 213.869C515.003 213.745 514.73 213.68 514.453 213.678C488.272 215.576 462.051 216.387 435.79 216.111C435.323 216.127 434.88 216.324 434.555 216.661C434.229 216.998 434.048 217.448 434.048 217.916C434.048 218.384 434.229 218.834 434.555 219.171C434.88 219.508 435.323 219.705 435.79 219.721L435.79 219.721Z" fill="#89B0AE"/>
<path d="M443.271 221.683C454.506 225.662 465.46 230.395 476.058 235.851C485.566 240.769 498.014 246.14 504.557 254.928C505.929 256.77 509.062 254.972 507.673 253.106C500.991 244.132 489.487 238.851 479.824 233.75C468.346 227.722 456.451 222.526 444.23 218.202C442.038 217.421 441.095 220.908 443.271 221.683Z" fill="#89B0AE"/>
<path d="M513.839 215.253C501.917 220.355 491.816 230.184 481.162 237.467C469.629 245.351 457.754 252.688 445.535 259.477C443.507 260.61 445.324 263.73 447.356 262.595C459.549 255.782 471.424 248.445 482.983 240.585C493.635 233.303 503.741 223.471 515.66 218.371C517.789 217.46 515.953 214.349 513.839 215.253Z" fill="#89B0AE"/>
<path d="M317.868 197.115H385.366C385.834 197.099 386.277 196.902 386.602 196.565C386.927 196.228 387.109 195.778 387.109 195.31C387.109 194.842 386.927 194.392 386.602 194.055C386.277 193.718 385.834 193.521 385.366 193.505H317.868C317.401 193.521 316.958 193.718 316.632 194.055C316.307 194.392 316.126 194.842 316.126 195.31C316.126 195.778 316.307 196.228 316.632 196.565C316.958 196.902 317.401 197.099 317.868 197.115Z" fill="#89B0AE"/>
<path d="M380.004 179.396L390.55 189.028C391.756 190.13 395.073 192.404 395.822 193.844C397.372 196.822 395.707 196.143 393.052 197.175C386.528 199.772 380.517 203.508 375.297 208.207C373.552 209.746 376.111 212.291 377.848 210.76C382.609 206.478 388.078 203.059 394.011 200.656C396.139 199.814 400.175 199.321 401.186 196.785C402.423 193.681 398.483 191.391 396.616 189.686L382.555 176.843C380.843 175.279 378.284 177.825 380.004 179.396L380.004 179.396Z" fill="#89B0AE"/>
<path d="M124.975 322.716C146.355 322.716 163.687 318.328 163.687 312.915C163.687 307.501 146.355 303.113 124.975 303.113C103.595 303.113 86.263 307.501 86.263 312.915C86.263 318.328 103.595 322.716 124.975 322.716Z" fill="#2F2E41"/>
<path d="M117.279 182.464C119.612 189.465 112.615 197.866 112.615 197.866L122.41 210.001L137.802 212.801C137.802 212.801 148.063 205.8 144.331 203.466C140.6 201.133 140.134 182.464 140.134 182.464L117.279 182.464Z" fill="#FFD6BA"/>
<path d="M101.426 318.22L84.6347 443.537L85.5593 443.661L102.35 318.344L101.426 318.22Z" fill="#2F2E41"/>
<path d="M116.815 320.109L106.087 443.792L107.017 443.873L117.744 320.189L116.815 320.109Z" fill="#2F2E41"/>
<path d="M146.229 300.967L145.3 301.052L158.292 443.644L159.221 443.559L146.229 300.967Z" fill="#2F2E41"/>
<path d="M134.165 298.631L128.94 444.049L129.872 444.082L135.097 298.665L134.165 298.631Z" fill="#2F2E41"/>
<path d="M157.391 274.876L128.94 299.146L177.447 311.281C177.447 311.281 160.189 326.216 154.126 327.617C148.063 329.017 135.003 336.951 135.003 336.951C135.003 336.951 156.458 351.42 157.857 350.953C159.257 350.486 167.186 348.619 167.186 348.619C167.186 348.619 210.096 318.749 218.957 301.013C227.819 283.277 174.182 279.543 174.182 279.543L157.391 274.876Z" fill="#2F2E41"/>
<path d="M97.2237 303.347C95.3581 309.414 109.35 315.948 109.35 315.948C109.35 315.948 122.41 333.217 126.141 335.084C129.873 336.951 131.272 348.153 131.272 348.153C124.742 365.888 131.272 418.629 131.272 426.097C131.272 433.564 154.126 426.097 154.126 426.097C154.126 426.097 149.928 369.156 155.992 351.971C162.055 334.787 131.272 291.212 131.272 291.212C131.272 291.212 99.0893 297.279 97.2237 303.347Z" fill="#2F2E41"/>
<path d="M109.817 172.646C109.819 167.693 111.787 162.944 115.288 159.443C118.789 155.942 123.536 153.976 128.486 153.977C133.435 153.978 138.182 155.946 141.681 159.449C145.18 162.951 147.146 167.701 147.146 172.654C147.146 177.607 145.18 182.357 141.681 185.86C138.182 189.362 133.435 191.33 128.486 191.331C123.536 191.332 118.789 189.366 115.288 185.865C111.787 182.364 109.819 177.615 109.817 172.662V172.646Z" fill="#FFD6BA"/>
<path d="M181.644 280.01L162.348 273.311C161.608 266.58 160.511 258.3 159.434 250.624L165.32 219.335L165.831 204.888C162.529 199.106 140.748 191.331 140.748 191.331C140.748 191.331 141.181 192.855 141.787 195.278C141.613 195.282 141.445 195.339 141.305 195.442C141.305 195.442 143.865 210.467 130.339 206.734C126.499 205.786 123.036 203.698 120.405 200.743C117.839 196.361 116.443 192.497 117.071 189.678C117.071 189.678 90.9296 210.133 89.0639 214.801C87.1983 219.468 94.0166 259.405 94.0166 259.405C94.0166 259.405 86.4962 300.546 95.8245 311.281C95.8245 311.281 92.5595 305.68 109.817 305.68C127.074 305.68 135.47 302.413 135.936 301.946C136.402 301.48 145.264 301.946 145.264 301.946C145.264 301.946 145.43 298.552 145.564 293.164C154.545 290.954 162.059 288.405 162.988 287.011C163.185 286.501 163.27 285.955 163.238 285.409L181.644 280.01Z" fill="white"/>
<path d="M154.235 286.204L155.992 298.679C155.992 298.679 170.451 320.149 177.913 315.482C185.376 310.814 166.719 293.545 166.719 293.545V287.945L154.235 286.204Z" fill="#FFD6BA"/>
<path d="M138.734 336.951C138.734 336.951 122.41 348.153 121.944 350.953C121.477 353.753 155.992 387.358 163.921 384.558C171.85 381.757 154.126 354.687 154.126 354.687L159.257 347.219L138.734 336.951Z" fill="#2F2E41"/>
<path d="M133.604 422.363C133.604 422.363 126.608 435.431 130.339 441.032C134.07 446.633 136.869 453.634 139.201 458.768C141.533 463.902 158.324 466.235 165.786 464.368C173.249 462.501 156.925 441.032 156.925 441.032L152.727 422.363H133.604Z" fill="#2F2E41"/>
<path d="M169.518 215.135C169.051 203.933 161.122 200.666 161.122 200.666L155.992 258.074L156.539 258.112L155.992 259.007L152.727 291.212C156.458 286.544 168.118 291.212 168.118 291.212L169.518 259.007C169.518 259.007 169.984 226.336 169.518 215.135Z" fill="white"/>
<path d="M146.663 303.347L152.727 308.014C152.727 308.014 161.589 321.082 176.98 313.148C192.372 305.214 157.857 294.012 157.857 294.012L148.996 291.212L146.663 303.347Z" fill="#FFD6BA"/>
<path d="M86.0297 218.402C81.3656 224.002 92.0931 261.808 94.8916 273.009C97.69 284.211 122.876 294.012 128.94 294.479C135.003 294.946 141.066 306.147 145.264 308.014C149.462 309.881 149.928 297.279 152.305 291.362C154.683 285.444 138.734 286.078 138.734 286.078L115.414 270.675C115.414 270.675 113.082 249.206 111.216 232.87C109.35 216.535 96.7573 210.467 96.7573 210.467C93.026 208.134 90.6939 212.801 86.0297 218.402Z" fill="white"/>
<path d="M141.628 162.559C141.628 162.559 151.902 168.616 154.108 168.564C156.315 168.511 156.849 166.419 155.222 163.534C153.595 160.649 146.13 160.762 146.13 160.762L141.628 162.559Z" fill="#555B6E"/>
<path opacity="0.1" d="M141.628 162.559C141.628 162.559 151.902 168.616 154.108 168.564C156.315 168.511 156.849 166.419 155.222 163.534C153.595 160.649 146.13 160.762 146.13 160.762L141.628 162.559Z" fill="black"/>
<path d="M119.465 161.724L130.909 156.902L140.98 157.181L151.344 161.547C147.278 159.89 137.41 165.389 130.432 172.313C123.455 179.238 118.607 174.74 118.607 174.74L113.502 170.313L119.465 161.724Z" fill="#89B0AE"/>
<path d="M108.187 166.639C107.425 161.079 110.94 156.07 113.175 153.515C114.174 152.377 115.546 151.633 117.044 151.418C117.103 151.357 117.166 151.295 117.235 151.234C119.691 149.052 128.372 147.183 128.372 147.183C130.952 146.472 135.889 149.278 135.889 149.278L145.023 159.261C140.299 157.23 133.661 159.338 133.661 159.338C127.045 160.868 120.824 165.236 116.423 169.016C114.142 170.958 112.002 173.059 110.017 175.302C110.017 175.302 109.287 174.67 108.187 166.639Z" fill="#89B0AE"/>
<path opacity="0.1" d="M114.11 170.745C133.379 154.498 144.167 158.049 144.617 158.208L144.308 159.089C144.202 159.052 133.515 155.604 114.711 171.459L114.11 170.745Z" fill="black"/>
<path d="M118.446 152.576C119.784 151.803 120.451 150.452 119.936 149.559C119.421 148.666 117.918 148.569 116.58 149.343C115.241 150.116 114.574 151.467 115.089 152.36C115.604 153.253 117.107 153.349 118.446 152.576Z" fill="#89B0AE"/>
<path d="M114.233 173.098C114.419 171.823 113.95 170.698 113.186 170.586C112.421 170.475 111.65 171.418 111.464 172.693C111.278 173.968 111.747 175.093 112.511 175.205C113.276 175.316 114.047 174.373 114.233 173.098Z" fill="#FFD6BA"/>
<path opacity="0.2" d="M114.653 244.537L116.065 271.106L138.591 285.012L118.78 270.143L114.653 244.537Z" fill="black"/>
<path opacity="0.2" d="M152.624 248.667L150.973 285.012L150.147 248.667H152.624Z" fill="black"/>
</g>
<defs>
<clipPath id="clip0">
<rect width="698" height="628" fill="white"/>
</clipPath>
</defs>
</svg>
